<svg width="15" height="23" viewBox="0 0 15 23" fill="none" xmlns="http://www.w3.org/2000/svg">
<path d="M3.23281 21.4667L3.29899 21.5329C3.5608 21.7826 4.5817 22.6465 6.04594 22.5043C7.75513 22.3333 8.58326 20.7634 8.58326 20.7634L8.51317 20.7084C8.2363 20.5014 7.15995 19.7873 5.65769 19.9336C3.90591 20.1056 3.23281 21.4667 3.23281 21.4667ZM10.3452 6.14913L9.53625 6.38417L9.5808 6.56469C9.86142 7.83755 10.9284 15.2242 7.30212e-06 21.7212L0.426118 22.4518C11.1814 16.0601 10.744 8.49933 10.4365 6.59883L10.4068 6.42915L10.3695 6.24855C10.3558 6.188 10.3466 6.15422 10.3452 6.14913ZM9.05185 16.9658L8.86913 17.0022C7.14985 17.3845 6.64018 18.8188 6.64018 18.8188L6.75421 18.9061C7.09688 19.1522 8.17932 19.8137 9.55641 19.5066C11.2316 19.1335 11.8697 17.4728 11.8697 17.4728L11.7938 17.4266C11.5201 17.2685 10.5306 16.7678 9.23095 16.9383L9.05185 16.9658ZM2.56923 14.8911L2.45143 14.9583C2.08152 15.1832 0.9574 15.9775 0.784813 17.4116C0.578739 19.1326 1.74365 20.2773 1.74365 20.2773L1.84577 20.2211C2.16673 20.0302 3.14432 19.3348 3.32079 17.8631C3.53152 16.0968 2.56923 14.8911 2.56923 14.8911ZM13.5105 13.2023L13.3941 13.1751C13.0173 13.0977 11.781 12.9275 10.5119 13.6689C8.98967 14.5608 8.93356 16.0839 8.93356 16.0839L9.05154 16.1267C9.4331 16.2529 10.6808 16.5714 11.9174 15.8492C13.4013 14.9825 13.5105 13.2023 13.5105 13.2023ZM4.37889 11.8264L4.27272 11.9393C3.97204 12.2792 3.15168 13.3561 3.39288 14.7599C3.6865 16.4688 5.12619 17.228 5.12619 17.228L5.18739 17.1665C5.41737 16.9223 6.2039 15.96 5.9462 14.4564C5.6447 12.7011 4.37889 11.8264 4.37889 11.8264ZM6.38063 8.73853L6.32175 8.81239C6.09157 9.11466 5.28381 10.3099 5.67013 11.7535C6.1217 13.4265 7.62811 14.0457 7.62811 14.0457L7.68331 13.9786C7.8895 13.7132 8.58283 12.6793 8.18607 11.2068C7.723 9.48993 6.38063 8.73853 6.38063 8.73853ZM14.5496 8.7571L14.4375 8.75654C14.0618 8.76459 12.8099 8.87138 11.729 9.88623C10.69 10.8638 10.6738 12.0302 10.7058 12.4418L10.7237 12.5946L10.8403 12.6093C11.2308 12.6477 12.526 12.6867 13.5795 11.6966C14.8354 10.5171 14.5496 8.7571 14.5496 8.7571ZM11.4961 6.09046C10.6201 7.63038 11.3272 8.97986 11.3272 8.97986L11.3981 8.96803C11.7179 8.90788 13.044 8.58508 13.789 7.27034C14.6436 5.76834 13.8584 4.17151 13.8584 4.17151L13.7065 4.21966C13.3056 4.36134 12.2018 4.84761 11.4961 6.09046ZM6.72884 4.24093L6.68297 4.31676C6.49764 4.63832 5.84099 5.93667 6.41608 7.32401C7.08067 8.92496 8.65208 9.34055 8.65208 9.34055L8.69524 9.27172C8.86187 8.98955 9.42547 7.86897 8.83877 6.45222C8.15597 4.80946 6.72884 4.24093 6.72884 4.24093ZM9.28385 0L9.22518 0.0715601C9.00898 0.348088 8.27459 1.40738 8.37709 2.92303C8.47937 4.44829 9.47412 5.20043 9.75106 5.38137L9.82229 5.42519L9.88975 5.36066C10.1446 5.105 11.0295 4.10435 10.9299 2.62275C10.8142 0.891099 9.28385 0 9.28385 0Z" fill="white" fill-opacity="0.3"/>
</svg>
