<?xml version="1.0" encoding="UTF-8"?>
<svg width="25px" height="32px" viewBox="0 0 25 32" version="1.1" xmlns="http://www.w3.org/2000/svg" xmlns:xlink="http://www.w3.org/1999/xlink">
    <title>Icons / Tabbar / 01</title>
    <g id="BBPlay" stroke="none" stroke-width="1" fill="none" fill-rule="evenodd">
        <g id="login-|-01" transform="translate(-48.000000, -716.000000)" fill="#FFFFFF">
            <g id="Tabbar" transform="translate(0.000000, 716.000000)">
                <g id="Icons-/-Tabbar-/-01" transform="translate(48.000000, 0.000000)">
                    <path d="M12.264,0 C8.072,0 4.664,3.408 4.664,7.6 C4.664,11.712 7.88,15.04 12.072,15.184 C12.2,15.168 12.328,15.168 12.424,15.184 L12.536,15.184 C16.6249578,15.04757 19.8680024,11.6912312 19.8640037,7.6 C19.8640037,3.408 16.456,0 12.264,0 Z M21.392,19.44 C16.928,16.464 7.648,16.464 3.152,19.44 C1.12,20.8 0,22.64 0,24.608 C0,26.576 1.12,28.4 3.136,29.744 C5.376,31.248 9.32,32 12.264,32 C15.208,32 19.152,31.248 21.392,29.744 C23.408,28.384 24.528,26.56 24.528,24.576 C24.512,22.608 23.408,20.784 21.392,19.44 Z" id="Shape"></path>
                </g>
            </g>
        </g>
    </g>
</svg>