<svg width="64" height="64" viewBox="0 0 64 64" fill="none" xmlns="http://www.w3.org/2000/svg">
<path d="M40.704 21.728L26.976 35.488L21.696 30.208C21.4091 29.873 21.0561 29.6009 20.6591 29.4089C20.2621 29.2168 19.8297 29.1089 19.389 29.0918C18.9483 29.0748 18.5088 29.1491 18.0982 29.31C17.6875 29.4708 17.3146 29.7149 17.0027 30.0267C16.6909 30.3386 16.4468 30.7115 16.286 31.1222C16.1251 31.5328 16.0508 31.9723 16.0679 32.413C16.0849 32.8537 16.1928 33.2861 16.3849 33.6831C16.577 34.0801 16.849 34.4331 17.184 34.72L24.704 42.272C25.003 42.5686 25.3576 42.8032 25.7475 42.9625C26.1374 43.1217 26.5549 43.2024 26.976 43.2C27.8155 43.1965 28.62 42.8632 29.216 42.272L45.216 26.272C45.5159 25.9745 45.754 25.6206 45.9165 25.2306C46.0789 24.8407 46.1626 24.4224 46.1626 24C46.1626 23.5776 46.0789 23.1593 45.9165 22.7693C45.754 22.3794 45.5159 22.0255 45.216 21.728C44.6164 21.132 43.8054 20.7975 42.96 20.7975C42.1146 20.7975 41.3036 21.132 40.704 21.728ZM32 0C25.671 0 19.4841 1.87677 14.2218 5.39297C8.95939 8.90918 4.85787 13.9069 2.43587 19.7541C0.0138651 25.6014 -0.619841 32.0355 0.614885 38.2429C1.84961 44.4503 4.89732 50.1521 9.37259 54.6274C13.8479 59.1027 19.5497 62.1504 25.7571 63.3851C31.9645 64.6198 38.3986 63.9861 44.2459 61.5641C50.0931 59.1421 55.0908 55.0406 58.607 49.7782C62.1232 44.5159 64 38.329 64 32C64 27.7977 63.1723 23.6365 61.5641 19.7541C59.956 15.8717 57.5989 12.3441 54.6274 9.37258C51.6559 6.40111 48.1283 4.044 44.2459 2.43585C40.3635 0.827704 36.2023 0 32 0V0ZM32 57.6C26.9368 57.6 21.9873 56.0986 17.7774 53.2856C13.5675 50.4726 10.2863 46.4745 8.3487 41.7967C6.41109 37.1189 5.90413 31.9716 6.89191 27.0057C7.87969 22.0398 10.3179 17.4783 13.8981 13.8981C17.4783 10.3178 22.0398 7.87968 27.0057 6.8919C31.9716 5.90411 37.1189 6.41108 41.7967 8.34868C46.4745 10.2863 50.4727 13.5675 53.2856 17.7774C56.0986 21.9873 57.6 26.9368 57.6 32C57.6 38.7895 54.9029 45.301 50.1019 50.1019C45.301 54.9029 38.7895 57.6 32 57.6V57.6Z" fill="#00FF9D"/>
</svg>
