<svg width="20" height="20" viewBox="0 0 20 20" fill="none" xmlns="http://www.w3.org/2000/svg">
<path fill-rule="evenodd" clip-rule="evenodd" d="M0.305198 0.293254C0.690931 -0.0929546 1.31464 -0.0983811 1.70702 0.281057L5.48801 4.06671C6.88651 3.35769 8.43244 2.98926 10 2.99139C15.523 2.99139 20 7.4739 20 13.0037C20 13.5567 19.5523 14.0049 19 14.0049C18.4477 14.0049 18 13.5567 18 13.0037C18.0007 10.3394 16.6782 7.84914 14.4716 6.35992C12.2651 4.8707 9.46345 4.57745 6.99701 5.57757L19.707 18.3032C20.086 18.6961 20.0806 19.3205 19.6948 19.7067C19.3091 20.093 18.6854 20.0984 18.293 19.7189L0.293016 1.6968C-0.0859556 1.30394 -0.0805358 0.679462 0.305198 0.293254ZM8.26899e-06 13.0037C-0.00327625 10.4494 0.972033 7.99107 2.72501 6.13525L4.14 7.54999C2.76192 9.03052 1.997 10.9799 2.00001 13.0037C2.00001 13.5567 1.55229 14.0049 1.00001 14.0049C0.447723 14.0049 8.26899e-06 13.5567 8.26899e-06 13.0037ZM6 13.0037C6 12.0025 6.366 11.0883 6.972 10.3865L12.614 16.0354C11.4296 17.0592 9.75767 17.2976 8.33493 16.6454C6.91219 15.9933 5.99988 14.5704 6 13.0037Z" fill="white"/>
</svg>
