<svg width="16" height="23" viewBox="0 0 16 23" fill="none" xmlns="http://www.w3.org/2000/svg">
<g clip-path="url(#clip0_186_356404)">
<path d="M12.2911 21.4665L12.2249 21.5326C11.9631 21.7824 10.9422 22.6462 9.47798 22.5041C7.7688 22.333 6.94067 20.7631 6.94067 20.7631L7.01075 20.7082C7.28762 20.5012 8.36398 19.787 9.86624 19.9334C11.618 20.1054 12.2911 21.4665 12.2911 21.4665ZM5.17877 6.14888L5.98767 6.38392L5.94312 6.56445C5.66251 7.8373 4.59555 15.2239 15.5239 21.7209L15.0978 22.4515C4.34251 16.0599 4.77992 8.49908 5.08747 6.59858L5.11714 6.42891L5.15442 6.24831C5.16817 6.18776 5.17735 6.15397 5.17877 6.14888ZM6.47208 16.9656L6.6548 17.0019C8.37408 17.3842 8.88375 18.8185 8.88375 18.8185L8.76972 18.9059C8.42704 19.1519 7.34461 19.8135 5.96752 19.5063C4.29228 19.1333 3.65423 17.4725 3.65423 17.4725L3.7301 17.4264C4.00382 17.2683 4.99337 16.7676 6.29297 16.9381L6.47208 16.9656ZM12.9547 14.8908L13.0725 14.958C13.4424 15.183 14.5665 15.9773 14.7391 17.4113C14.9452 19.1324 13.7803 20.277 13.7803 20.277L13.6782 20.2208C13.3572 20.0299 12.3796 19.3346 12.2031 17.8628C11.9924 16.0966 12.9547 14.8908 12.9547 14.8908ZM2.01343 13.2021L2.12979 13.1748C2.50664 13.0975 3.74293 12.9273 5.01202 13.6687C6.53425 14.5606 6.59037 16.0837 6.59037 16.0837L6.47239 16.1265C6.09083 16.2527 4.8431 16.5712 3.60651 15.8489C2.1226 14.9822 2.01343 13.2021 2.01343 13.2021ZM11.145 11.8262L11.2512 11.9391C11.5519 12.2789 12.3722 13.3558 12.1311 14.7596C11.8374 16.4686 10.3977 17.2278 10.3977 17.2278L10.3365 17.1663C10.1066 16.922 9.32002 15.9597 9.57772 14.4562C9.87922 12.7009 11.145 11.8262 11.145 11.8262ZM9.1433 8.73829L9.20217 8.81215C9.43235 9.11441 10.2401 10.3097 9.8538 11.7533C9.40223 13.4263 7.89582 14.0454 7.89582 14.0454L7.84062 13.9783C7.63443 13.713 6.94109 12.679 7.33786 11.2065C7.80093 9.48969 9.1433 8.73829 9.1433 8.73829ZM0.974316 8.75686L1.08642 8.7563C1.46213 8.76435 2.71401 8.87114 3.79493 9.88598C4.83388 10.8635 4.85016 12.03 4.81818 12.4415L4.80027 12.5943L4.68358 12.6091C4.29316 12.6474 2.99791 12.6865 1.94441 11.6964C0.688485 10.5169 0.974316 8.75686 0.974316 8.75686ZM4.02787 6.09022C4.90385 7.63013 4.19672 8.97961 4.19672 8.97961L4.12586 8.96779C3.80598 8.90763 2.47991 8.58484 1.73488 7.2701C0.880333 5.7681 1.66553 4.17126 1.66553 4.17126L1.81745 4.21942C2.2183 4.36109 3.32212 4.84736 4.02787 6.09022ZM8.79508 4.24069L8.84095 4.31651C9.02628 4.63808 9.68294 5.93643 9.10785 7.32376C8.44326 8.92471 6.87185 9.34031 6.87185 9.34031L6.82869 9.27148C6.66205 8.98931 6.09845 7.86872 6.68515 6.45197C7.36796 4.80921 8.79508 4.24069 8.79508 4.24069ZM6.24007 -0.000244141L6.29875 0.071316C6.51495 0.347844 7.24934 1.40714 7.14683 2.92279C7.04455 4.44805 6.04981 5.20019 5.77287 5.38112L5.70163 5.42494L5.63418 5.36042C5.37932 5.10475 4.49442 4.1041 4.59404 2.6225C4.70973 0.890855 6.24007 -0.000244141 6.24007 -0.000244141Z" fill="white" fill-opacity="0.3"/>
</g>
<defs>
<clipPath id="clip0_186_356404">
<rect width="16" height="23" fill="white"/>
</clipPath>
</defs>
</svg>
