<svg width="20" height="20" viewBox="0 0 20 20" fill="none" xmlns="http://www.w3.org/2000/svg">
<path fill-rule="evenodd" clip-rule="evenodd" d="M14.7619 0H5.23813C3.72661 0.00172213 2.50172 1.22661 2.5 2.73813V17.2619C2.50172 18.7734 3.72661 19.9983 5.23813 20H14.7619C16.2734 19.9983 17.4983 18.7734 17.5 17.2619V2.73813C17.4983 1.22661 16.2734 0.00172213 14.7619 0V0ZM11.875 17.5H8.125C7.77982 17.5 7.5 17.2202 7.5 16.875C7.5 16.5298 7.77982 16.25 8.125 16.25H11.875C12.2202 16.25 12.5 16.5298 12.5 16.875C12.5 17.2202 12.2202 17.5 11.875 17.5Z" fill="white"/>
</svg>
