<?xml version="1.0" encoding="UTF-8"?>
<svg width="16px" height="16px" viewBox="0 0 16 16" version="1.1" xmlns="http://www.w3.org/2000/svg" xmlns:xlink="http://www.w3.org/1999/xlink">
    <title>Icons / App / 09</title>
    <g id="BBPlay" stroke="none" stroke-width="1" fill="none" fill-rule="evenodd">
        <g id="profile-|-01" transform="translate(-172.000000, -532.000000)" fill="#4A5A6B" fill-rule="nonzero">
            <g id="Balance" transform="translate(24.000000, 426.000000)">
                <g id="Bonus" transform="translate(24.000000, 100.000000)">
                    <g id="Icons-/-App-/-09" transform="translate(124.000000, 6.000000)">
                        <path d="M8,0 C3.581875,0 0,3.581875 0,8 C0,12.418125 3.581875,16 8,16 C12.418125,16 16,12.418125 16,8 C16,3.581875 12.418125,0 8,0 Z M8.88375,12.7615625 C8.85,12.951875 8.6775,13.124375 8.4871875,13.158125 C8.371875,13.1771875 8.2146875,13.1953125 8,13.195625 C7.785625,13.195625 7.6284375,13.1775 7.5128125,13.158125 C7.3225,13.124375 7.15,12.951875 7.11625,12.7615625 C7.0971875,12.64625 7.0790625,12.4890625 7.07875,12.274375 C7.07875,12.06 7.096875,11.9028125 7.11625,11.7871875 C7.15,11.596875 7.3225,11.424375 7.5128125,11.390625 C7.628125,11.3715625 7.7853125,11.3534375 8,11.353125 C8.214375,11.353125 8.3715625,11.37125 8.4871875,11.390625 C8.6775,11.424375 8.85,11.596875 8.88375,11.7871875 C8.9028125,11.9025 8.9209375,12.0596875 8.92125,12.274375 C8.92125,12.48875 8.903125,12.6459375 8.88375,12.7615625 Z M9.794375,8.220625 C8.9403125,8.7471875 8.726875,9.0175 8.726875,9.544375 L8.726875,9.7065625 C8.726875,10.1625 8.3571875,10.5321875 7.90125,10.5321875 C7.4453125,10.5321875 7.075625,10.1625 7.075625,9.7065625 L7.075625,9.3309375 C7.075625,8.4628125 7.4884375,7.879375 8.4703125,7.295625 C9.438125,6.72625 9.75125,6.3421875 9.75125,5.7584375 C9.75125,5.0753125 9.181875,4.6340625 8.3421875,4.6340625 C7.4353125,4.6340625 6.8534375,5.0675 6.6040625,5.855 C6.4796875,6.2475 6.096875,6.499375 5.68625,6.4696875 C5.109375,6.4278125 4.7171875,5.8578125 4.89375,5.306875 C5.3459375,3.8971875 6.6075,2.9975 8.3421875,2.9975 C10.076875,2.9975 11.5303125,4.1503125 11.5303125,5.73 C11.5303125,6.7690625 11.00375,7.480625 9.7940625,8.220625 L9.794375,8.220625 Z" id="Shape"></path>
                    </g>
                </g>
            </g>
        </g>
    </g>
</svg>