<?xml version="1.0" encoding="UTF-8"?>
<svg width="30px" height="30px" viewBox="0 0 30 30" version="1.1" xmlns="http://www.w3.org/2000/svg" xmlns:xlink="http://www.w3.org/1999/xlink">
    <title>Icons / Tabbar / 01 Copy</title>
    <g id="BBPlay" stroke="none" stroke-width="1" fill="none" fill-rule="evenodd">
        <g id="login-|-01" transform="translate(-130.000000, -717.000000)" fill="#4A5A6B">
            <g id="Tabbar" transform="translate(0.000000, 716.000000)">
                <g id="Icons-/-Tabbar-/-01-Copy" transform="translate(130.000000, 1.000000)">
                    <path d="M27.7184965,8.3674077 L19.6394975,1.68753354 C16.9180479,-0.56251118 13.0819484,-0.56251118 10.3605437,1.68753354 L2.28145471,8.3674077 C0.825884897,9.57088755 0,11.3955923 0,13.2994521 L0,25.3108506 C0,27.8128503 1.92964476,30 4.5,30 L7.5,30 C9.98527375,30 12,27.9853503 12,25.5 L12,20.5272012 C12,19.5066013 12.7565984,18.8380514 13.5,18.8380514 L16.5,18.8380514 C17.2433978,18.8380514 18,19.5066013 18,20.5272012 L18,25.5 C18,27.9853503 20.0146475,30 22.5,30 L25.5,30 C28.0703965,30 30,27.8128503 30,25.3108506 L30,13.2994521 C30,11.3955923 29.1740964,9.57088755 27.7184965,8.3674077 Z" id="Path"></path>
                </g>
            </g>
        </g>
    </g>
</svg>