<svg width="30" height="30" viewBox="0 0 30 30" fill="none" xmlns="http://www.w3.org/2000/svg">
<path fill-rule="evenodd" clip-rule="evenodd" d="M8.71934 0H21.2956C26.7583 0 30.015 3.255 29.9999 8.715V21.285C29.9999 26.745 26.7433 30 21.2806 30H8.71934C3.25662 30 0 26.745 0 21.27V8.715C0 3.255 3.25662 0 8.71934 0ZM9.37967 22.625H20.6353C21.2506 22.625 21.7608 22.115 21.7608 21.5C21.7608 20.885 21.2506 20.375 20.6353 20.375H9.37967C8.76437 20.375 8.25411 20.885 8.25411 21.5C8.25411 22.115 8.76437 22.625 9.37967 22.625ZM9.37967 8.625H20.6353C21.2506 8.625 21.7608 8.115 21.7608 7.5C21.7608 6.885 21.2506 6.375 20.6353 6.375H9.37967C8.76437 6.375 8.25411 6.885 8.25411 7.5C8.25411 8.115 8.76437 8.625 9.37967 8.625ZM20.6351 15.625H9.37947C8.76416 15.625 8.25391 15.115 8.25391 14.5C8.25391 13.885 8.76416 13.375 9.37947 13.375H20.6351C21.2504 13.375 21.7606 13.885 21.7606 14.5C21.7606 15.115 21.2504 15.625 20.6351 15.625Z" fill="white"/>
</svg>
