<svg width="20" height="20" viewBox="0 0 20 20" fill="none" xmlns="http://www.w3.org/2000/svg">
<path fill-rule="evenodd" clip-rule="evenodd" d="M10 0C5.51483 0.00516627 1.88017 3.63983 1.875 8.12501C1.875 15.8963 9.39876 19.7719 9.71876 19.9331C9.89566 20.0223 10.1044 20.0223 10.2813 19.9331C10.6013 19.7719 18.125 15.8963 18.125 8.12501C18.1199 3.63983 14.4852 0.00516627 10 0ZM10 12.5C7.58376 12.5 5.625 10.5413 5.625 8.125C5.625 5.70876 7.58376 3.75 10 3.75C12.4163 3.75 14.375 5.70876 14.375 8.125C14.3723 10.5401 12.4151 12.4973 10 12.5Z" fill="white"/>
</svg>
