<svg width="36" height="36" viewBox="0 0 36 36" fill="none" xmlns="http://www.w3.org/2000/svg">
<rect width="36" height="36" rx="18" fill="#141C23"/>
<path fill-rule="evenodd" clip-rule="evenodd" d="M13.5117 9.10085L24.7561 16.5938C25.8518 17.3253 25.8729 18.9446 24.7913 19.7045L13.5538 27.581C12.0508 28.6321 10 27.5455 10 25.6989V11.0185C10 9.19318 12.0087 8.09943 13.5117 9.10085Z" fill="#FF00BD"/>
<path fill-rule="evenodd" clip-rule="evenodd" d="M14.6704 9.10085L25.9289 16.5724C27.0245 17.304 27.0456 18.9233 25.971 19.6832L14.7477 27.581C13.2447 28.6321 11.1868 27.5526 11.1868 25.706V11.0114C11.1798 9.17898 13.1604 8.09943 14.6704 9.10085Z" fill="#00FF9D"/>
<path d="M24.4051 22.2827C24.391 22.2401 24.384 22.1903 24.37 22.1477L24.3489 22.0625C24.3419 22.0341 24.3348 22.0057 24.3278 21.9844L24.3138 21.9347C24.2927 21.8423 24.2716 21.7571 24.2506 21.6932C24.2154 21.544 24.1944 21.473 24.1944 21.473C24.1944 21.473 24.1803 21.4233 24.1522 21.3168C24.1171 21.4162 24.1031 21.473 24.1031 21.473C24.1031 21.473 23.787 22.3963 23.3656 23.3622L23.3305 23.4475L23.2954 23.5327C23.2743 23.5753 23.2603 23.6179 23.2392 23.6605L23.1971 23.7457L23.1549 23.831C23.0215 24.108 22.888 24.3778 22.7476 24.6122C22.7405 24.1364 22.6773 23.7244 22.6773 23.7244C22.6773 23.7244 22.6703 23.6889 22.6633 23.6321C22.6282 23.6676 22.6071 23.696 22.6001 23.7031C22.593 23.7102 22.579 23.7244 22.5579 23.7457L22.5298 23.7742C22.3402 23.9588 21.7783 24.5128 21.1041 24.9957C21.0268 25.0526 20.9496 25.1023 20.8793 25.1591L20.767 25.2443L20.6897 25.3011C20.6546 25.3296 20.6125 25.358 20.5773 25.3864L20.5001 25.4432C20.0014 25.8054 19.5449 26.1534 19.3201 26.3523C19.3342 26.0753 19.2359 25.8267 19.2359 25.8267C19.2359 25.8267 19.2359 25.8196 19.2288 25.8125L19.2218 25.7983C19.2148 25.7912 19.2148 25.777 19.2078 25.7628C19.1797 25.7983 19.1586 25.8125 19.1586 25.8125C19.1446 25.8267 18.6951 26.331 18.2877 26.9418C18.077 27.2543 17.8804 27.6165 17.7469 27.9077C17.6205 27.6165 17.4168 27.2543 17.2061 26.9418C16.7847 26.3168 16.3352 25.8125 16.3352 25.8125C16.3282 25.8054 16.3141 25.7912 16.286 25.7628C16.265 25.8054 16.258 25.8267 16.258 25.8267C16.2439 25.8551 16.1596 26.0895 16.1737 26.3452C15.9349 26.1392 15.4432 25.7628 14.9165 25.3864L14.8392 25.3296C14.8252 25.3225 14.8111 25.3082 14.8041 25.3011L14.7269 25.2443L14.6145 25.1591C14.5372 25.1023 14.46 25.0526 14.3897 24.9957C13.7085 24.5057 13.1396 23.9517 12.964 23.7742L12.9429 23.7528C12.9148 23.7244 12.9078 23.7173 12.9008 23.7102L12.8376 23.6392L12.8235 23.7315C12.8165 23.7671 12.8165 23.7813 12.8165 23.8026V23.8168C12.8095 23.8523 12.8095 23.8949 12.8024 23.9446C12.7954 24.0156 12.7884 24.1009 12.7814 24.1932C12.7673 24.3352 12.7603 24.4986 12.7603 24.6619V24.6122C12.5847 24.3139 12.4162 23.973 12.2546 23.6179L12.2125 23.5327C11.756 22.51 11.4048 21.4872 11.4048 21.4872C11.4048 21.4872 11.3837 21.4304 11.3556 21.331L11.3486 21.3523C11.3346 21.402 11.3275 21.4375 11.3205 21.4588L11.3135 21.473C11.3135 21.4872 11.3065 21.4872 11.3065 21.4872C11.3065 21.4943 11.2994 21.5156 11.2924 21.5511L11.2854 21.5796C11.2784 21.608 11.2713 21.6364 11.2643 21.6719C11.2362 21.7784 11.2152 21.8565 11.1941 21.956L11.173 22.0483L11.166 22.0909L11.1309 22.233C11.1168 22.2827 11.1098 22.3253 11.0958 22.375C10.281 16.4446 12.2757 13.4119 12.36 13.2983C12.36 13.2983 12.374 13.2699 12.3459 13.1989C12.2968 13.0568 12.1563 12.652 12.1633 12.4957C12.1703 12.375 12.2195 11.6364 12.6479 11.0327C12.8727 10.7131 13.2098 10.429 13.7085 10.3011C14.1861 10.3082 15.2466 10.7841 15.2466 10.7841L15.359 10.7912C15.682 10.5284 16.1526 10.1804 16.581 10.0313C16.6091 10.081 16.6161 10.1946 16.6161 10.1946C16.6161 10.1946 16.6232 10.2372 16.6161 10.2869C16.6653 10.2514 16.6934 10.223 16.6934 10.223C16.7074 10.2088 16.9673 9.97444 17.1008 9.68325C17.3255 9.71876 17.6135 9.81819 17.8804 9.93183C18.2596 10.0952 18.5967 10.2869 18.6178 10.3438C18.6248 10.358 18.6178 10.3793 18.6108 10.4219C18.6389 10.4006 18.667 10.3864 18.688 10.3651C19.0181 10.1236 19.875 9.44887 20.7599 8.16336C20.781 8.44035 20.8091 8.79546 20.8372 9.15768L20.8442 9.26421C20.8864 9.75427 20.9285 10.2301 20.9425 10.4645C20.9425 10.4858 20.9425 10.5 20.9496 10.5284C20.9706 10.5213 20.9847 10.5142 21.0058 10.5071C21.3007 10.4077 21.6168 10.3082 21.8275 10.3082C22.3262 10.4361 22.6633 10.7131 22.888 11.0398C23.3165 11.6364 23.3656 12.375 23.3726 12.5028C23.3797 12.6946 23.169 13.2486 23.169 13.2486C23.2603 13.419 25.2549 16.4446 24.4402 22.375L24.4051 22.2827Z" fill="black" stroke="white" stroke-width="1.3276"/>
<path fill-rule="evenodd" clip-rule="evenodd" d="M24.4331 22.5952C24.2856 21.9986 24.1591 21.4801 24.1591 21.4801C24.1591 21.4801 23.4428 23.5824 22.7123 24.7614C22.7193 24.2287 22.6421 23.7173 22.6421 23.7173C22.6421 23.7173 21.9819 24.4134 21.1461 25.0099C20.3665 25.5639 19.4816 26.2173 19.2638 26.4375C19.3271 26.1321 19.1936 25.8125 19.1936 25.8125C19.1936 25.8125 18.7371 26.3168 18.3227 26.9418C18.0909 27.2898 17.8732 27.7017 17.7468 28C17.6204 27.6946 17.4026 27.2898 17.1709 26.9418C16.7565 26.3168 16.3 25.8125 16.3 25.8125C16.3 25.8125 16.1736 26.1321 16.2297 26.4375C16.012 26.2102 15.1271 25.5639 14.3475 25.0099C13.5257 24.4062 12.8585 23.7102 12.8585 23.7102C12.8585 23.7102 12.7813 24.2216 12.7883 24.7543C12.0578 23.5753 11.3415 21.473 11.3415 21.473C11.3415 21.473 11.215 21.9915 11.0676 22.5881C10.1405 16.3594 12.3107 13.2415 12.3107 13.2415C12.3107 13.2415 12.093 12.6662 12.1 12.4744C12.107 12.2827 12.2264 10.6065 13.6873 10.2372C14.1719 10.2372 15.2465 10.7273 15.2465 10.7273H15.3237C15.6538 10.4574 16.1455 10.1023 16.5809 9.96023C16.623 9.99574 16.6511 10.1662 16.6511 10.1662C16.6511 10.1662 16.9321 9.91761 17.0655 9.60511C17.6344 9.66903 18.6107 10.2017 18.6528 10.3011C18.9899 10.0526 19.8819 9.34943 20.7879 8C20.823 8.6392 20.9424 9.98864 20.9846 10.4361C21.2866 10.3295 21.6097 10.2372 21.8274 10.2372C23.2882 10.5994 23.4006 12.2756 23.4147 12.4744C23.4217 12.6662 23.211 13.2415 23.211 13.2415C23.211 13.2415 25.3601 16.3594 24.4331 22.5952ZM23.9484 19.3565C23.9484 19.3565 23.7026 18.5185 23.4919 18.2628C23.9344 20.5852 23.0846 22.3679 23.0846 22.3679C23.0846 22.3679 23.0705 21.8494 22.9511 21.4091C22.8739 21.8565 22.7053 22.2614 22.4946 22.6094C22.1715 22.0341 21.7571 21.7145 21.6026 21.679C20.8511 22.4389 19.5097 23.4901 17.7538 24.2784C15.998 23.4901 14.6565 22.4389 13.905 21.679C13.7505 21.7145 13.3361 22.0341 13.013 22.6094C12.8023 22.2614 12.6267 21.8565 12.5565 21.4091C12.4371 21.8494 12.4231 22.3679 12.4231 22.3679C12.4231 22.3679 11.5732 20.5852 12.0157 18.2628C11.805 18.5185 11.5592 19.3565 11.5592 19.3565C11.5592 19.3565 11.3906 16.402 12.9147 13.4332C12.8515 13.2131 12.8023 12.9787 12.7672 12.7443C12.9498 11.4588 13.1535 11.1463 13.9261 10.9474C14.3404 11.0398 14.9445 11.2528 15.3588 11.5724C15.703 11.3026 16.0471 11.054 16.2719 10.9261C16.3281 11.1747 16.3281 11.2244 16.5317 11.1463C16.8689 11.0185 17.3113 10.4148 17.3113 10.4148C17.3113 10.4148 17.8311 10.5852 18.4562 11.0327C18.4913 11.054 18.5264 11.0824 18.5545 11.1108C19.0742 10.8338 19.8327 10.3651 20.2893 9.73295C20.3454 10.4858 20.4227 11.0398 20.5 11.3949C20.8792 11.1747 21.3357 11.0256 21.6658 10.9474C22.4384 11.1392 22.6421 11.4517 22.8247 12.7443C22.7826 13.0071 22.7264 13.277 22.6491 13.5185C24.117 16.4588 23.9484 19.3565 23.9484 19.3565ZM15.998 20.4503C16.0542 20.9332 16.3772 21.4091 16.5528 21.5511C16.7776 21.7358 17.199 21.9134 17.6204 21.9489V21.6222C17.4307 21.5298 17.1006 21.331 16.9461 20.9972C16.8338 20.7628 16.7424 20.4787 16.7424 20.3153C16.7424 20.0881 17.3324 19.7685 17.7538 19.7685C18.1752 19.7685 18.7652 20.0881 18.7652 20.3153C18.7652 20.4787 18.6739 20.7699 18.5615 20.9972C18.407 21.3239 18.0769 21.5298 17.8873 21.6222V21.9489C18.3087 21.9134 18.7301 21.7358 18.9548 21.5511C19.1304 21.402 19.4535 20.9332 19.5097 20.4503C19.5448 20.1094 19.4605 19.733 19.3341 19.3565C19.2779 19.1861 18.5194 17.7869 18.4281 17.6449C18.2876 17.446 17.7538 17.4389 17.7538 17.4389C17.7538 17.4389 17.22 17.4389 17.0796 17.6449C16.9812 17.7798 16.2297 19.1861 16.1736 19.3565C16.0401 19.733 15.9558 20.1165 15.998 20.4503ZM22.0732 15.1165C22.0732 15.1165 21.0267 14.8395 19.9662 14.8395C19.4043 14.8395 18.7652 14.9815 18.3438 15.0526C17.9434 15.1165 17.7468 15.1165 17.7468 15.1165C17.7468 15.1165 17.5501 15.1236 17.1498 15.0526C16.7284 14.9815 16.0963 14.8395 15.5274 14.8395C14.4669 14.8395 13.4204 15.1165 13.4204 15.1165V15.5568C13.4204 15.7131 13.596 15.7344 13.6241 15.9048C13.912 17.3182 14.1438 17.7869 15.5063 17.7869C15.9699 17.7869 16.4334 17.7443 16.8267 17.3821C17.1428 17.0838 17.2692 16.5227 17.4307 16.2244C17.5431 16.0185 17.7398 16.0043 17.7398 16.0043C17.7398 16.0043 17.9364 16.0114 18.0488 16.2244C18.2103 16.5227 18.3368 17.0838 18.6528 17.3821C19.0391 17.7443 19.5097 17.7869 19.9732 17.7869C21.3357 17.7869 21.5675 17.3182 21.8555 15.9048C21.8906 15.7344 22.0592 15.706 22.0592 15.5568V15.1165H22.0732ZM20.0013 17.581C19.615 17.581 19.2217 17.6307 18.8284 17.2045C18.5194 16.8636 18.2876 16.1321 18.2876 15.7912C18.2876 15.2443 18.9267 15.0455 19.9943 15.0455C20.9214 15.0455 21.5956 15.0952 21.5956 15.8551C21.4692 16.6009 21.5535 17.581 20.0013 17.581ZM16.6722 17.2045C16.2789 17.6307 15.8856 17.581 15.4993 17.581C13.9471 17.581 14.0314 16.6009 13.898 15.8622C13.898 15.1023 14.5722 15.0526 15.4993 15.0526C16.5669 15.0526 17.206 15.2514 17.206 15.7983C17.213 16.1321 16.9883 16.8636 16.6722 17.2045ZM13.905 22.1619C14.3194 22.6378 14.9164 23.3409 15.5274 23.8026C15.5414 23.6818 15.7311 23.6676 15.7311 23.6676C15.7311 23.6676 17.0655 24.4276 17.7538 25.3793C18.4421 24.4276 19.7765 23.6676 19.7765 23.6676C19.7765 23.6676 19.9662 23.6818 19.9802 23.8026C20.5842 23.3338 21.1883 22.6378 21.6026 22.1619C21.7993 22.3111 22.1013 22.4673 22.3401 22.858C21.8765 23.5327 21.3357 23.9375 21.3357 23.9375C21.3357 23.9375 21.5956 23.4901 21.6026 22.9148C21.104 23.696 19.6431 25.1023 19.6431 25.1023C19.6431 25.1023 19.5939 24.7614 19.6642 24.5341C18.5123 25.2088 17.7538 26.608 17.7538 26.608C17.7538 26.608 16.9953 25.2088 15.8435 24.5341C15.9137 24.7685 15.8645 25.1023 15.8645 25.1023C15.8645 25.1023 14.4037 23.696 13.905 22.9148C13.912 23.4901 14.1719 23.9375 14.1719 23.9375C14.1719 23.9375 13.6311 23.5256 13.1675 22.858C13.4063 22.4673 13.7083 22.3111 13.905 22.1619Z" fill="white"/>
</svg>
