<?xml version="1.0" encoding="UTF-8"?>
<svg width="28px" height="32px" viewBox="0 0 28 32" version="1.1" xmlns="http://www.w3.org/2000/svg" xmlns:xlink="http://www.w3.org/1999/xlink">
    <title>Icons / Tabbar / 01 Copy 3</title>
    <g id="BBPlay" stroke="none" stroke-width="1" fill="none" fill-rule="evenodd">
        <g id="booking-|-01" transform="translate(-301.000000, -716.000000)" fill="#FFFFFF">
            <g id="Tabbar" transform="translate(44.000000, 716.000000)">
                <g id="Icons-/-Tabbar-/-01-Copy-3" transform="translate(257.000000, 0.000000)">
                    <path d="M21.2048193,3.56240964 L21.2048193,1.15662651 C21.2048193,0.524337349 20.6804819,0 20.0481928,0 C19.4159036,0 18.8915663,0.524337349 18.8915663,1.15662651 L18.8915663,3.46987952 L8.86746988,3.46987952 L8.86746988,1.15662651 C8.86746988,0.524337349 8.34313253,0 7.71084337,0 C7.07855422,0 6.55421687,0.524337349 6.55421687,1.15662651 L6.55421687,3.56240964 C2.39036145,3.94795181 0.370120482,6.43084337 0.061686747,10.1166265 C0.0308433735,10.5638554 0.400963855,10.9339759 0.832771084,10.9339759 L26.9262651,10.9339759 C27.373494,10.9339759 27.7436145,10.5484337 27.6973494,10.1166265 C27.3889157,6.43084337 25.3686747,3.94795181 21.2048193,3.56240964 Z M26.2168675,13.2472289 L1.54216867,13.2472289 C0.693975904,13.2472289 0,13.9412048 0,14.7893976 L0,24.2891566 C0,28.9156627 2.31325301,32 7.71084337,32 L20.0481928,32 C25.4457831,32 27.7590361,28.9156627 27.7590361,24.2891566 L27.7590361,14.7893976 C27.7590361,13.9412048 27.0650602,13.2472289 26.2168675,13.2472289 Z M9.57686747,26.1551807 C9.49975904,26.2168675 9.4226506,26.2939759 9.34554217,26.340241 C9.25301205,26.4019277 9.16048193,26.4481928 9.06795181,26.4790361 C8.97542169,26.5253012 8.88289157,26.5561446 8.79036145,26.5715663 C8.68240964,26.586988 8.58987952,26.6024096 8.48192771,26.6024096 C8.28144578,26.6024096 8.08096386,26.5561446 7.89590361,26.4790361 C7.69542169,26.4019277 7.54120482,26.2939759 7.38698795,26.1551807 C7.10939759,25.8621687 6.93975904,25.4612048 6.93975904,25.060241 C6.93975904,24.6592771 7.10939759,24.2583133 7.38698795,23.9653012 C7.54120482,23.826506 7.69542169,23.7185542 7.89590361,23.6414458 C8.17349398,23.5180723 8.48192771,23.4872289 8.79036145,23.5489157 C8.88289157,23.5643373 8.97542169,23.5951807 9.06795181,23.6414458 C9.16048193,23.6722892 9.25301205,23.7185542 9.34554217,23.780241 L9.57686747,23.9653012 C9.85445783,24.2583133 10.0240964,24.6592771 10.0240964,25.060241 C10.0240964,25.4612048 9.85445783,25.8621687 9.57686747,26.1551807 Z M9.57686747,20.7575904 C9.28385542,21.0351807 8.88289157,21.2048193 8.48192771,21.2048193 C8.08096386,21.2048193 7.68,21.0351807 7.38698795,20.7575904 C7.10939759,20.4645783 6.93975904,20.0636145 6.93975904,19.6626506 C6.93975904,19.2616867 7.10939759,18.8607229 7.38698795,18.5677108 C7.81879518,18.1359036 8.4973494,17.9971084 9.06795181,18.2438554 C9.26843373,18.3209639 9.43807229,18.4289157 9.57686747,18.5677108 C9.85445783,18.8607229 10.0240964,19.2616867 10.0240964,19.6626506 C10.0240964,20.0636145 9.85445783,20.4645783 9.57686747,20.7575904 Z M14.9744578,26.1551807 C14.6814458,26.4327711 14.2804819,26.6024096 13.8795181,26.6024096 C13.4785542,26.6024096 13.0775904,26.4327711 12.7845783,26.1551807 C12.506988,25.8621687 12.3373494,25.4612048 12.3373494,25.060241 C12.3373494,24.6592771 12.506988,24.2583133 12.7845783,23.9653012 C13.3551807,23.3946988 14.4038554,23.3946988 14.9744578,23.9653012 C15.2520482,24.2583133 15.4216867,24.6592771 15.4216867,25.060241 C15.4216867,25.4612048 15.2520482,25.8621687 14.9744578,26.1551807 L14.9744578,26.1551807 Z M14.9744578,20.7575904 L14.7431325,20.9426506 C14.6506024,21.0043373 14.5580723,21.0506024 14.4655422,21.0814458 C14.373012,21.1277108 14.2804819,21.1585542 14.1879518,21.1739759 C14.08,21.1893976 13.9874699,21.2048193 13.8795181,21.2048193 C13.4785542,21.2048193 13.0775904,21.0351807 12.7845783,20.7575904 C12.506988,20.4645783 12.3373494,20.0636145 12.3373494,19.6626506 C12.3373494,19.2616867 12.506988,18.8607229 12.7845783,18.5677108 C12.9233735,18.4289157 13.093012,18.3209639 13.293494,18.2438554 C13.8640964,17.9971084 14.5426506,18.1359036 14.9744578,18.5677108 C15.2520482,18.8607229 15.4216867,19.2616867 15.4216867,19.6626506 C15.4216867,20.0636145 15.2520482,20.4645783 14.9744578,20.7575904 L14.9744578,20.7575904 Z M20.3720482,26.1551807 C20.0790361,26.4327711 19.6780723,26.6024096 19.2771084,26.6024096 C18.8761446,26.6024096 18.4751807,26.4327711 18.1821687,26.1551807 C17.9045783,25.8621687 17.7349398,25.4612048 17.7349398,25.060241 C17.7349398,24.6592771 17.9045783,24.2583133 18.1821687,23.9653012 C18.7527711,23.3946988 19.8014458,23.3946988 20.3720482,23.9653012 C20.6496386,24.2583133 20.8192771,24.6592771 20.8192771,25.060241 C20.8192771,25.4612048 20.6496386,25.8621687 20.3720482,26.1551807 Z M20.3720482,20.7575904 L20.1407229,20.9426506 C20.0481928,21.0043373 19.9556627,21.0506024 19.8631325,21.0814458 C19.7706024,21.1277108 19.6780723,21.1585542 19.5855422,21.1739759 C19.4775904,21.1893976 19.3696386,21.2048193 19.2771084,21.2048193 C18.8761446,21.2048193 18.4751807,21.0351807 18.1821687,20.7575904 C17.9045783,20.4645783 17.7349398,20.0636145 17.7349398,19.6626506 C17.7349398,19.2616867 17.9045783,18.8607229 18.1821687,18.5677108 C18.3363855,18.4289157 18.4906024,18.3209639 18.6910843,18.2438554 C18.9686747,18.1204819 19.2771084,18.0896386 19.5855422,18.1513253 C19.6780723,18.166747 19.7706024,18.1975904 19.8631325,18.2438554 C19.9556627,18.2746988 20.0481928,18.3209639 20.1407229,18.3826506 L20.3720482,18.5677108 C20.6496386,18.8607229 20.8192771,19.2616867 20.8192771,19.6626506 C20.8192771,20.0636145 20.6496386,20.4645783 20.3720482,20.7575904 L20.3720482,20.7575904 Z" id="Shape"></path>
                </g>
            </g>
        </g>
    </g>
</svg>