<svg width="229" height="89" viewBox="0 0 229 89" fill="none" xmlns="http://www.w3.org/2000/svg">
<g clip-path="url(#clip0_4550_6882)">
<path fill-rule="evenodd" clip-rule="evenodd" d="M218.995 29.4367C220.321 30.7658 222.246 31.4304 224.045 31.4304C227.264 31.4304 229 29.4051 229 27.0633C229 22.6646 222.814 23.1076 222.814 21.1139C222.814 20.5443 223.256 20.1329 224.298 20.1329C225.402 20.1329 226.601 20.6709 227.39 21.3671L228.842 18.5823C227.643 17.5063 226.033 17 224.455 17C221.52 17 219.406 18.7089 219.406 21.2722C219.406 25.6392 225.591 25.3228 225.591 27.3165C225.591 27.8544 225.118 28.2975 224.14 28.2975C222.877 28.2975 221.552 27.538 220.763 26.8418L218.995 29.4367ZM204.825 31.1772H208.233V26.462H209.843L212.336 31.1772H216.123L213.409 26.3038C213.251 26.019 213.062 25.7342 212.873 25.4494V25.4177C214.261 24.7215 214.956 23.1076 214.956 21.6203C214.956 19.5949 213.946 18.1709 212.368 17.5696C211.768 17.3481 211.074 17.2532 209.654 17.2532H204.793V31.1772H204.825ZM208.233 23.5506V20.1646H209.401C209.969 20.1646 210.379 20.2278 210.695 20.3544C211.326 20.6076 211.516 21.1456 211.516 21.8418C211.516 22.9494 210.821 23.5506 209.748 23.5506H208.233ZM188.35 31.1772H191.885L192.737 28.2342H197.092L197.945 31.1772H201.479L196.714 17.2215H193.116L188.35 31.1772ZM193.526 25.5127L194.315 22.7911C194.568 21.9051 194.883 20.3861 194.883 20.3861H194.915C194.915 20.3861 195.23 21.9051 195.483 22.7911L196.272 25.5127H193.526ZM161.713 31.1772H166.858C169.635 31.1772 172.191 30.0696 172.191 27.0316C172.191 25.7975 171.592 24.3734 170.014 23.8987V23.8671C171.055 23.2658 171.623 22.0633 171.623 20.8924C171.623 18.4873 169.667 17.2532 166.858 17.2532H161.713V31.1772ZM165.122 22.6329V20.1646H166.826C167.741 20.1646 168.12 20.7025 168.12 21.3671C168.12 22.0316 167.741 22.6646 166.889 22.6646H165.122V22.6329ZM165.122 28.2658V25.3861H167.205C168.215 25.3861 168.657 26.019 168.657 26.8101C168.657 27.6013 168.183 28.2658 167.173 28.2658H165.122Z" fill="white"/>
<path fill-rule="evenodd" clip-rule="evenodd" d="M143.156 31.1456H146.596V25.481H148.016L150.983 31.1139H154.833L150.793 23.9304V23.8987L154.581 17.2532H150.888L147.985 22.6329H146.564V17.2532H143.124V31.1456H143.156ZM127.502 24.1519C127.502 28.2658 130.342 31.3671 134.855 31.3671C137.412 31.3671 139.274 30.2911 140.505 29.0253L138.737 26.5253C137.791 27.4747 136.402 28.2342 135.013 28.2342C132.299 28.2342 131.068 26.1139 131.068 24.057C131.068 22.0633 132.236 20.1013 135.013 20.1013C136.276 20.1013 137.633 20.7342 138.516 21.5253L140.094 18.962C138.737 17.6329 136.718 17 134.855 17C130.532 17 127.502 20.1013 127.502 24.1519ZM112.637 31.1456H116.172L117.024 28.2342H121.379L122.231 31.1456H125.766L121 17.2215H117.403L112.637 31.1456ZM117.813 25.481L118.602 22.7911C118.854 21.9051 119.17 20.3861 119.17 20.3861H119.201C119.201 20.3861 119.517 21.9051 119.77 22.7911L120.559 25.481H117.813ZM100.644 31.1456H109.797V28.2342H104.084V17.2215H100.644V31.1456ZM86 31.1456H91.1443C93.9217 31.1456 96.478 30.038 96.478 27C96.478 25.7658 95.8784 24.3418 94.3004 23.8671V23.8354C95.3734 23.2342 95.91 22.0316 95.91 20.8924C95.91 18.4873 93.9532 17.2532 91.1443 17.2532H86V31.1456ZM89.4401 22.6013V20.1329H91.1443C92.0596 20.1329 92.4383 20.6709 92.4383 21.3354C92.4383 22 92.0596 22.6329 91.2075 22.6329H89.4401V22.6013ZM89.4401 28.2025V25.3228H91.5231C92.533 25.3228 93.0064 25.9557 93.0064 26.7468C93.0064 27.538 92.5014 28.2025 91.5231 28.2025H89.4401Z" fill="white"/>
<path fill-rule="evenodd" clip-rule="evenodd" d="M184.405 17.6962L183.679 17.0949L182.606 17.0633L175.19 24.8165L175.884 28.3924L180.334 31.8101L180.87 32L182.827 30.6709L182.732 29.943L181.565 28.2025L182.196 25.9557L185.194 27.0633L186.425 25.1962L183.806 22.538L184.626 20.8608L186.646 19.5316L186.614 18.1392L184.405 17.6962Z" fill="white"/>
<path fill-rule="evenodd" clip-rule="evenodd" d="M15.7108 4.8988L66.0166 38.2422C70.9184 41.4975 71.0126 48.7035 66.1737 52.0852L15.8993 87.1353C9.17508 91.8129 0 86.9773 0 78.7599V13.4322C0 5.30966 8.98655 0.442474 15.7108 4.8988Z" fill="#FF00BD"/>
<path fill-rule="evenodd" clip-rule="evenodd" d="M20.8953 4.89879L71.264 38.1474C76.1657 41.4027 76.26 48.6087 71.4525 51.9904L21.2409 87.1353C14.5167 91.8129 5.31014 87.0089 5.31014 78.7915V13.4006C5.2788 5.24644 14.1397 0.442465 20.8953 4.89879Z" fill="#00FF9D"/>
<path d="M64.4455 63.5579C64.3827 63.3682 64.3513 63.147 64.2884 62.9574L64.1942 62.5781C64.1628 62.4517 64.1313 62.3253 64.0999 62.2305L64.0371 62.0092C63.9428 61.5984 63.8485 61.2191 63.7543 60.9347C63.5972 60.2709 63.5029 59.9549 63.5029 59.9549C63.5029 59.9549 63.4401 59.7337 63.3144 59.2596C63.1573 59.7021 63.0944 59.9549 63.0944 59.9549C63.0944 59.9549 61.6805 64.0636 59.7952 68.3619L59.6381 68.7411L59.4809 69.1204C59.3867 69.31 59.3238 69.4996 59.2296 69.6893L59.041 70.0685L58.8525 70.4478C58.2555 71.6804 57.6585 72.8814 57.0301 73.9244C56.9986 71.8068 56.7159 69.9737 56.7159 69.9737C56.7159 69.9737 56.6844 69.8157 56.653 69.5629C56.4959 69.7209 56.4016 69.8473 56.3702 69.8789C56.3388 69.9105 56.276 69.9737 56.1817 70.0685L56.056 70.1949C55.2076 71.0167 52.6939 73.4819 49.6774 75.631C49.3318 75.8839 48.9862 76.1051 48.6719 76.3579L48.1692 76.7372L47.8236 76.9901C47.6665 77.1165 47.4779 77.2429 47.3208 77.3693L46.9752 77.6222C44.7443 79.234 42.7019 80.7827 41.6964 81.6676C41.7592 80.435 41.3193 79.3288 41.3193 79.3288C41.3193 79.3288 41.3193 79.2972 41.2879 79.2656L41.2565 79.2024C41.225 79.1708 41.225 79.1076 41.1936 79.0444C41.0679 79.2024 40.9737 79.2656 40.9737 79.2656C40.9108 79.3288 38.8999 81.5728 37.0774 84.2908C36.1348 85.6815 35.255 87.2933 34.6579 88.5891C34.0924 87.2933 33.1811 85.6815 32.2385 84.2908C30.3532 81.5096 28.3422 79.2656 28.3422 79.2656C28.3108 79.234 28.248 79.1708 28.1223 79.0444C28.028 79.234 27.9966 79.3288 27.9966 79.3288C27.9337 79.4552 27.5567 80.4982 27.6195 81.636C26.5512 80.7195 24.3517 79.0444 21.9951 77.3693L21.6494 77.1165C21.5866 77.0849 21.5238 77.0217 21.4923 76.9901L21.1467 76.7372L20.644 76.3579C20.2983 76.1051 19.9527 75.8839 19.6385 75.631C16.5906 73.4503 14.0454 70.9851 13.2599 70.1949L13.1656 70.1001C13.0399 69.9737 13.0085 69.9421 12.9771 69.9105L12.6943 69.5945L12.6315 70.0053C12.6 70.1633 12.6 70.2266 12.6 70.3214V70.3846C12.5686 70.5426 12.5686 70.7322 12.5372 70.9535C12.5058 71.2695 12.4744 71.6488 12.4429 72.0597C12.3801 72.6918 12.3487 73.4187 12.3487 74.1456V73.9244C11.5631 72.5969 10.809 71.0799 10.0863 69.4996L9.8978 69.1204C7.8554 64.5692 6.28432 60.0181 6.28432 60.0181C6.28432 60.0181 6.19006 59.7653 6.06437 59.3228L6.03295 59.4176C5.97011 59.6388 5.93868 59.7969 5.90726 59.8917L5.87584 59.9549C5.87584 60.0181 5.84442 60.0181 5.84442 60.0181C5.84442 60.0497 5.813 60.1445 5.78158 60.3026L5.75016 60.429C5.71873 60.5554 5.68731 60.6818 5.65589 60.8398C5.5302 61.3139 5.43594 61.6616 5.34168 62.104L5.24741 62.5149L5.21599 62.7045L5.05888 63.3366C4.99604 63.5579 4.96462 63.7475 4.90177 63.9687C1.25688 37.5785 10.1806 24.0831 10.5576 23.5774C10.5576 23.5774 10.6205 23.451 10.4948 23.1349C10.2749 22.5028 9.64642 20.7013 9.67785 20.006C9.70927 19.4687 9.92922 16.1818 11.8459 13.4954C12.8514 12.0731 14.3596 10.8089 16.5906 10.2401C18.7272 10.2717 23.4719 12.3892 23.4719 12.3892L23.9746 12.4208C25.42 11.2514 27.5253 9.70277 29.442 9.03906C29.5677 9.26029 29.5991 9.76598 29.5991 9.76598C29.5991 9.76598 29.6305 9.95561 29.5991 10.1768C29.819 10.0188 29.9447 9.8924 29.9447 9.8924C30.0076 9.82919 31.1702 8.78622 31.7672 7.49041C32.7727 7.64843 34.0609 8.0909 35.255 8.59659C36.9517 9.3235 38.46 10.1768 38.5542 10.4297C38.5856 10.4929 38.5542 10.5877 38.5228 10.7773C38.6485 10.6825 38.7742 10.6193 38.8684 10.5245C40.3452 9.44993 44.1787 6.44744 48.1378 0.726913C48.232 1.95951 48.3577 3.53977 48.4834 5.15163L48.5148 5.62571C48.7034 7.80646 48.8919 9.924 48.9547 10.967C48.9547 11.0618 48.9547 11.125 48.9862 11.2514C49.0804 11.2198 49.1433 11.1882 49.2375 11.1566C50.5572 10.7141 51.9712 10.2717 52.9138 10.2717C55.1448 10.8406 56.653 12.0731 57.6585 13.527C59.5752 16.1818 59.7952 19.4687 59.8266 20.0376C59.858 20.891 58.9154 23.3562 58.9154 23.3562C59.3238 24.1147 68.2475 37.5785 64.6026 63.9687L64.4455 63.5579Z" fill="black" stroke="white" stroke-width="1.3276"/>
<path fill-rule="evenodd" clip-rule="evenodd" d="M64.5712 64.9485C63.9114 62.2937 63.3458 59.9865 63.3458 59.9865C63.3458 59.9865 60.1408 69.3416 56.873 74.5881C56.9044 72.2177 56.5588 69.9421 56.5588 69.9421C56.5588 69.9421 53.6051 73.0394 49.866 75.6942C46.3782 78.1594 42.4191 81.0671 41.445 82.0469C41.7278 80.6879 41.1308 79.2656 41.1308 79.2656C41.1308 79.2656 39.0884 81.5096 37.2345 84.2908C36.1976 85.8395 35.2235 87.6726 34.658 89C34.0924 87.641 33.1183 85.8395 32.0814 84.2908C30.2275 81.5096 28.1851 79.2656 28.1851 79.2656C28.1851 79.2656 27.6195 80.6879 27.8709 82.0469C26.8968 81.0355 22.9377 78.1594 19.4499 75.6942C15.7736 73.0078 12.7886 69.9105 12.7886 69.9105C12.7886 69.9105 12.4429 72.1861 12.4744 74.5565C9.20653 69.31 6.00154 59.9549 6.00154 59.9549C6.00154 59.9549 5.43595 62.2621 4.7761 64.9169C0.62846 37.1992 10.3377 23.3246 10.3377 23.3246C10.3377 23.3246 9.36364 20.7646 9.39506 19.9112C9.42648 19.0579 9.96065 11.5991 16.4963 9.95561C18.6644 9.95561 23.4719 12.1364 23.4719 12.1364H23.8175C25.2943 10.9354 27.4939 9.35511 29.442 8.72301C29.6305 8.88104 29.7562 9.63956 29.7562 9.63956C29.7562 9.63956 31.0131 8.53338 31.6101 7.14276C34.1552 7.4272 38.5228 9.79759 38.7113 10.2401C40.2196 9.13388 44.2101 6.00497 48.2635 0C48.4206 2.84446 48.9548 8.84943 49.1433 10.8406C50.4944 10.3665 51.9398 9.95561 52.9139 9.95561C59.4495 11.5675 59.9523 19.0263 60.0151 19.9112C60.0465 20.7646 59.1039 23.3246 59.1039 23.3246C59.1039 23.3246 68.7189 37.1992 64.5712 64.9485ZM62.4032 50.5366C62.4032 50.5366 61.3034 46.8072 60.3608 45.6694C62.3403 56.0043 58.5383 63.9371 58.5383 63.9371C58.5383 63.9371 58.4755 61.63 57.9413 59.6705C57.5957 61.6616 56.8416 63.4631 55.8989 65.0117C54.4535 62.4517 52.5996 61.0295 51.9084 60.8714C48.5463 64.2532 42.5448 68.9307 34.6894 72.4389C26.834 68.9307 20.8325 64.2532 17.4704 60.8714C16.7791 61.0295 14.9252 62.4517 13.4799 65.0117C12.5372 63.4631 11.7517 61.6616 11.4375 59.6705C10.9033 61.63 10.8405 63.9371 10.8405 63.9371C10.8405 63.9371 7.03845 56.0043 9.018 45.6694C8.07536 46.8072 6.97561 50.5366 6.97561 50.5366C6.97561 50.5366 6.22149 37.3888 13.04 24.1779C12.7572 23.1982 12.5372 22.1552 12.3801 21.1122C13.1971 15.3917 14.1083 14.0011 17.5647 13.1161C19.4185 13.527 22.1208 14.4751 23.9746 15.8974C25.5143 14.6964 27.054 13.5902 28.0594 13.0213C28.3108 14.1275 28.3108 14.3487 29.222 14.0011C30.7303 13.4322 32.7098 10.7457 32.7098 10.7457C32.7098 10.7457 35.035 11.5043 37.8315 13.4954C37.9886 13.5902 38.1457 13.7166 38.2714 13.843C40.5966 12.6104 43.9902 10.5245 46.0326 7.71165C46.2839 11.0618 46.6296 13.527 46.9752 15.1072C48.672 14.1275 50.7144 13.4638 52.1912 13.1161C55.6475 13.9695 56.5588 15.3601 57.3757 21.1122C57.1872 22.2816 56.9358 23.4826 56.5902 24.5572C63.1573 37.6417 62.4032 50.5366 62.4032 50.5366ZM26.834 55.4038C27.0854 57.5529 28.5308 59.6705 29.3163 60.3026C30.3218 61.1243 32.2071 61.9144 34.0924 62.0724V60.6186C33.244 60.2077 31.7672 59.3228 31.0759 57.8374C30.5732 56.7944 30.1647 55.5302 30.1647 54.8033C30.1647 53.7919 32.8041 52.3697 34.6894 52.3697C36.5747 52.3697 39.2141 53.7919 39.2141 54.8033C39.2141 55.5302 38.8056 56.826 38.3029 57.8374C37.6116 59.2912 36.1348 60.2077 35.2864 60.6186V62.0724C37.1717 61.9144 39.057 61.1243 40.0625 60.3026C40.848 59.6388 42.2934 57.5529 42.5448 55.4038C42.7019 53.8867 42.3248 52.2116 41.7592 50.5366C41.5079 49.7781 38.1143 43.5518 37.7058 42.9197C37.0774 42.0348 34.6894 42.0032 34.6894 42.0032C34.6894 42.0032 32.3013 42.0032 31.6729 42.9197C31.233 43.5202 27.8709 49.7781 27.6195 50.5366C27.0225 52.2116 26.6455 53.9183 26.834 55.4038ZM54.0136 31.6683C54.0136 31.6683 49.3318 30.4357 44.5872 30.4357C42.0734 30.4357 39.2141 31.0678 37.3288 31.3839C35.5378 31.6683 34.658 31.6683 34.658 31.6683C34.658 31.6683 33.7782 31.6999 31.9871 31.3839C30.1018 31.0678 27.2739 30.4357 24.7288 30.4357C19.9841 30.4357 15.3023 31.6683 15.3023 31.6683V33.6278C15.3023 34.3232 16.0878 34.418 16.2135 35.1765C17.5018 41.4659 18.5387 43.5518 24.6345 43.5518C26.7083 43.5518 28.7821 43.3622 30.5417 41.7504C31.9557 40.4229 32.5213 37.9261 33.244 36.5987C33.7467 35.6822 34.6265 35.619 34.6265 35.619C34.6265 35.619 35.5063 35.6506 36.0091 36.5987C36.7318 37.9261 37.2974 40.4229 38.7113 41.7504C40.4395 43.3622 42.5448 43.5518 44.6186 43.5518C50.7144 43.5518 51.7513 41.4659 53.0395 35.1765C53.1967 34.418 53.9508 34.2915 53.9508 33.6278V31.6683H54.0136ZM44.7443 42.6353C43.0161 42.6353 41.2565 42.8565 39.4969 40.9602C38.1143 39.4432 37.0774 36.1879 37.0774 34.6708C37.0774 32.2372 39.9368 31.3523 44.7128 31.3523C48.8605 31.3523 51.8769 31.5735 51.8769 34.9553C51.3114 38.2738 51.6884 42.6353 44.7443 42.6353ZM29.8505 40.9602C28.0909 42.8565 26.3313 42.6353 24.6031 42.6353C17.6589 42.6353 18.036 38.2738 17.439 34.9869C17.439 31.6051 20.4554 31.3839 24.6031 31.3839C29.3791 31.3839 32.2385 32.2688 32.2385 34.7024C32.2699 36.1879 31.2644 39.4432 29.8505 40.9602ZM17.4704 63.0206C19.3243 65.1381 21.9951 68.2671 24.7288 70.3214C24.7916 69.7841 25.64 69.7209 25.64 69.7209C25.64 69.7209 31.6101 73.1026 34.6894 77.3377C37.7687 73.1026 43.7388 69.7209 43.7388 69.7209C43.7388 69.7209 44.5872 69.7841 44.65 70.3214C47.3523 68.2354 50.0545 65.1381 51.9084 63.0206C52.7882 63.6843 54.1393 64.3796 55.2076 66.1179C53.1338 69.1204 50.7144 70.9219 50.7144 70.9219C50.7144 70.9219 51.8769 68.9307 51.9084 66.3707C49.6774 69.8473 43.1418 76.1051 43.1418 76.1051C43.1418 76.1051 42.9218 74.5881 43.236 73.5767C38.0829 76.5792 34.6894 82.8054 34.6894 82.8054C34.6894 82.8054 31.2959 76.5792 26.1427 73.5767C26.4569 74.6197 26.237 76.1051 26.237 76.1051C26.237 76.1051 19.7013 69.8473 17.4704 66.3707C17.5018 68.9307 18.6644 70.9219 18.6644 70.9219C18.6644 70.9219 16.245 69.0888 14.1711 66.1179C15.2395 64.3796 16.5906 63.6843 17.4704 63.0206Z" fill="white"/>
<path d="M194 62H168V59H190.85H192.827L194 62Z" fill="#FF00BD"/>
<path d="M210.581 61.4211V62H220.323V61.5L222 59H209L210.581 61.4211Z" fill="#FF00BD"/>
<path d="M194.091 72H197L195.937 69H193L194.091 72Z" fill="#FF00BD"/>
<path d="M141 59H138V62H141V59Z" fill="#FF00BD"/>
<path d="M156 69H153V72H156V69Z" fill="#FF00BD"/>
<path d="M123 40H120V43H123V40Z" fill="#FF00BD"/>
<path d="M101 69H98V72H101V69Z" fill="#FF00BD"/>
<path d="M84 40H81V43H84V40Z" fill="#FF00BD"/>
<path d="M172.909 72H170L171.091 69H174L172.909 72Z" fill="#FF00BD"/>
<path d="M163.909 43H161L162.063 40H165L163.909 43Z" fill="#FF00BD"/>
<path d="M187 40L188.833 43H193L191 40H187Z" fill="#FF00BD"/>
<path d="M214 40L212.133 43H208L210 40H214Z" fill="#FF00BD"/>
<path d="M220 69H217V72H220V69Z" fill="#FF00BD"/>
<path d="M166.691 67.2663L166.185 69.0486H177.831L177.325 67.2663H166.691Z" fill="#00FF9D"/>
<path d="M93.8048 63.0017H100.578C101.843 63.0017 103.046 62.8425 104.154 62.4925H84.1837V69.0168H93.8048V63.0017Z" fill="#00FF9D"/>
<path d="M111.275 56.2864C112.287 54.3132 112.794 52.2127 112.794 50.0168C112.794 48.3936 112.477 46.8023 111.876 45.2747C111.591 44.5427 111.243 43.8107 110.832 43.1424H84.1837V58.8325H109.566C110.23 58.0687 110.8 57.2412 111.275 56.2864ZM101.527 53.9632C101.084 54.2814 100.609 54.4087 100.071 54.4087H93.8048V45.6248H99.7547C100.293 45.6248 100.831 45.7521 101.337 46.0704C101.843 46.3568 102.255 46.8342 102.603 47.4389C102.951 48.0754 103.109 48.9347 103.109 49.9531C103.109 50.9715 102.951 51.799 102.666 52.4992C102.35 53.1675 101.97 53.6449 101.527 53.9632Z" fill="#00FF9D"/>
<path d="M93.8048 72.6767H84.1837V74.809H93.8048V72.6767Z" fill="#00FF9D"/>
<path d="M105.388 38.1457C103.869 37.4137 102.16 37.0318 100.324 37.0318H84.1837V39.5142H107.572C106.907 38.9732 106.179 38.5276 105.388 38.1457Z" fill="#00FF9D"/>
<path d="M158.146 62.4925L155.931 69.0486H166.185L166.691 67.2663H177.325L177.831 69.0486H188.149L185.902 62.4925H158.146Z" fill="#00FF9D"/>
<path d="M177.198 37H166.849L165.995 39.5142H178.084L177.198 37Z" fill="#00FF9D"/>
<path d="M179.572 75H190.174L189.383 72.6767H178.907L179.572 75Z" fill="#00FF9D"/>
<path d="M153.905 75H164.476L165.14 72.6767H154.665L153.905 75Z" fill="#00FF9D"/>
<path d="M169.16 58.8643L171.058 52.4992C171.375 51.3853 171.755 49.8576 172.04 48.6164C172.324 49.8895 172.673 51.3853 173.021 52.4992L174.856 58.8643H184.667L179.319 43.1742H164.76L159.412 58.8643H169.16Z" fill="#00FF9D"/>
<path d="M212.613 62.4925H203.055V69.0168H212.613V62.4925Z" fill="#00FF9D"/>
<path d="M212.613 72.6767H203.055V74.809H212.613V72.6767Z" fill="#00FF9D"/>
<path d="M200.397 37H189.889L191.219 39.5142H201.599L200.397 37Z" fill="#00FF9D"/>
<path d="M207.866 52.4355L203.371 43.1424H193.149L201.504 58.8643H214.227L222.677 43.1424H212.423L207.866 52.4355Z" fill="#00FF9D"/>
<path d="M226 37H215.429L214.195 39.5142H224.639L226 37Z" fill="#00FF9D"/>
<path d="M132.954 66.057V62.4925H122.7V69.0486H148.018V66.057H132.954Z" fill="#00FF9D"/>
<path d="M132.954 43.1424H122.7V58.8325H132.954V43.1424Z" fill="#00FF9D"/>
<path d="M132.954 37H122.7V39.5142H132.954V37Z" fill="#00FF9D"/>
<path d="M148.018 72.6767H122.7V74.9682H148.018V72.6767Z" fill="#00FF9D"/>
<path d="M107.129 41.1055C106.591 40.5008 106.021 39.9916 105.388 39.5142H82V43.1742H108.648C108.205 42.4422 107.698 41.742 107.129 41.1055Z" fill="#00FF9D"/>
<path d="M177.103 43.1424L175.869 39.5142H163.779L162.545 43.1424H177.103Z" fill="#00FF9D"/>
<path d="M201.156 43.1424L199.384 39.5142H189.003L190.934 43.1424H201.156Z" fill="#00FF9D"/>
<path d="M212.011 39.5142L210.208 43.1424H220.493L222.424 39.5142H212.011Z" fill="#00FF9D"/>
<path d="M130.738 39.5142H120.484V43.1742H130.738V39.5142Z" fill="#00FF9D"/>
<path d="M109.249 61.124C110.199 60.4874 111.053 59.7236 111.781 58.8643H86.3991V62.5243H106.369C107.414 62.206 108.363 61.7286 109.249 61.124Z" fill="#00FF9D"/>
<path d="M171.375 58.8643H161.596L160.361 62.4925H188.117L186.883 58.8643H177.04H171.375Z" fill="#00FF9D"/>
<path d="M205.365 61.7923V62.4925H214.923V61.8878L216.569 58.8643H203.814L205.365 61.7923Z" fill="#00FF9D"/>
<path d="M135.169 58.8643H124.915V62.5243H135.169V58.8643Z" fill="#00FF9D"/>
<path d="M96.0202 69.0486H86.3991V72.7085H96.0202V69.0486Z" fill="#00FF9D"/>
<path d="M180.047 69.0486L181.123 72.6767H191.598L190.364 69.0486H180.047Z" fill="#00FF9D"/>
<path d="M158.114 69.0486L156.88 72.6767H167.356L168.4 69.0486H158.114Z" fill="#00FF9D"/>
<path d="M214.828 69.0486H205.27V72.7085H214.828V69.0486Z" fill="#00FF9D"/>
<path d="M150.234 69.0486H124.915V72.7085H150.234V69.0486Z" fill="#00FF9D"/>
<path d="M96.8048 63.0017H103.578C104.843 63.0017 106.046 62.8425 107.154 62.4925H87.1837V69.0168H96.8048V63.0017Z" fill="white"/>
<path d="M114.275 56.2864C115.287 54.3132 115.794 52.2127 115.794 50.0168C115.794 48.3936 115.477 46.8023 114.876 45.2747C114.591 44.5427 114.243 43.8107 113.832 43.1424H87.1837V58.8325H112.566C113.23 58.0687 113.8 57.2412 114.275 56.2864ZM104.527 53.9632C104.084 54.2814 103.609 54.4087 103.071 54.4087H96.8048V45.6248H102.755C103.293 45.6248 103.831 45.7521 104.337 46.0704C104.843 46.3568 105.255 46.8342 105.603 47.4389C105.951 48.0754 106.109 48.9347 106.109 49.9531C106.109 50.9715 105.951 51.799 105.666 52.4992C105.35 53.1675 104.97 53.6449 104.527 53.9632Z" fill="white"/>
<path d="M96.8048 72.6767H87.1837V74.809H96.8048V72.6767Z" fill="white"/>
<path d="M108.388 38.1457C106.869 37.4137 105.16 37.0318 103.324 37.0318H87.1837V39.5142H110.572C109.907 38.9732 109.179 38.5276 108.388 38.1457Z" fill="white"/>
<path d="M161.146 62.4925L158.931 69.0486H169.185L169.691 67.2663H180.325L180.831 69.0486H191.149L188.902 62.4925H161.146Z" fill="white"/>
<path d="M180.198 37H169.849L168.995 39.5142H181.084L180.198 37Z" fill="white"/>
<path d="M182.572 75H193.174L192.383 72.6767H181.907L182.572 75Z" fill="white"/>
<path d="M156.905 75H167.476L168.14 72.6767H157.665L156.905 75Z" fill="white"/>
<path d="M172.16 58.8643L174.058 52.4992C174.375 51.3853 174.755 49.8576 175.04 48.6164C175.324 49.8895 175.673 51.3853 176.021 52.4992L177.856 58.8643H187.667L182.319 43.1742H167.76L162.412 58.8643H172.16Z" fill="white"/>
<path d="M215.613 62.4925H206.055V69.0168H215.613V62.4925Z" fill="white"/>
<path d="M215.613 72.6767H206.055V74.809H215.613V72.6767Z" fill="white"/>
<path d="M203.397 37H192.889L194.219 39.5142H204.599L203.397 37Z" fill="white"/>
<path d="M210.866 52.4355L206.371 43.1424H196.149L204.504 58.8643H217.259L225.677 43.1424H215.423L210.866 52.4355Z" fill="white"/>
<path d="M229 37H218.429L217.195 39.5142H227.639L229 37Z" fill="white"/>
<path d="M135.954 66.057V62.4925H125.7V69.0486H151.018V66.057H135.954Z" fill="white"/>
<path d="M135.954 43.1424H125.7V58.8325H135.954V43.1424Z" fill="white"/>
<path d="M135.954 37H125.7V39.5142H135.954V37Z" fill="white"/>
<path d="M151.018 72.6767H125.7V74.9682H151.018V72.6767Z" fill="white"/>
<path d="M110.129 41.1055C109.591 40.5008 109.021 39.9916 108.388 39.5142H85V43.1742H111.648C111.205 42.4422 110.698 41.742 110.129 41.1055Z" fill="white"/>
<path d="M180.103 43.1424L178.869 39.5142H166.779L165.545 43.1424H180.103Z" fill="white"/>
<path d="M204.156 43.1424L202.384 39.5142H192.003L193.965 43.1424H204.156Z" fill="white"/>
<path d="M215.011 39.5142L213.208 43.1424H223.493L225.455 39.5142H215.011Z" fill="white"/>
<path d="M133.738 39.5142H123.484V43.1742H133.738V39.5142Z" fill="white"/>
<path d="M112.249 61.124C113.199 60.4874 114.053 59.7236 114.781 58.8643H89.3991V62.5243H109.369C110.414 62.206 111.363 61.7286 112.249 61.124Z" fill="white"/>
<path d="M174.375 58.8643H164.596L163.361 62.4925H191.117L189.883 58.8643H180.04H174.375Z" fill="white"/>
<path d="M208.365 61.7923V62.4925H217.923V61.8878L219.569 58.8643H206.814L208.365 61.7923Z" fill="white"/>
<path d="M138.169 58.8643H127.915V62.5243H138.169V58.8643Z" fill="white"/>
<path d="M99.0202 69.0486H89.3991V72.7085H99.0202V69.0486Z" fill="white"/>
<path d="M183.047 69.0486L184.123 72.6767H194.598L193.364 69.0486H183.047Z" fill="white"/>
<path d="M161.114 69.0486L159.88 72.6767H170.356L171.4 69.0486H161.114Z" fill="white"/>
<path d="M217.828 69.0486H208.27V72.7085H217.828V69.0486Z" fill="white"/>
<path d="M153.234 69.0486H127.915V72.7085H153.234V69.0486Z" fill="white"/>
</g>
<defs>
<clipPath id="clip0_4550_6882">
<rect width="229" height="89" fill="white"/>
</clipPath>
</defs>
</svg>
