<?xml version="1.0" encoding="UTF-8"?>
<svg width="375px" height="812px" viewBox="0 0 375 812" version="1.1" xmlns="http://www.w3.org/2000/svg" xmlns:xlink="http://www.w3.org/1999/xlink">
    <title>splash</title>
    <g id="splash" stroke="none" stroke-width="1" fill="none" fill-rule="evenodd">
        <rect fill="#1B242D" x="0" y="0" width="375" height="812"></rect>
        <g id="Bg-/-01" fill="#1B242D">
            <polygon id="Rectangle" points="1.496199e-14 1.17082071e-16 375 1.17082071e-16 375 812 0 812"></polygon>
        </g>
        <g id="Img-/-Logo-/-01" transform="translate(64.000000, 374.000000)">
            <g id="Group_00000121266324205740693770000009082442621640492210_" transform="translate(92.759825, 18.337799)" fill="#FFFFFF">
                <path d="M143.449149,13.4154043 C144.878875,14.8491116 146.955382,15.5659653 148.895724,15.5659653 C152.367915,15.5659653 154.240175,13.3812684 154.240175,10.8552126 C154.240175,6.11032409 147.568121,6.58822653 147.568121,4.43766554 C147.568121,3.82321954 148.044696,3.37945299 149.168052,3.37945299 C150.359491,3.37945299 151.653052,3.9597631 152.504079,4.71075265 L154.069969,1.70679444 C152.776408,0.54617422 151.040312,0 149.338258,0 C146.172437,0 143.891684,1.84333799 143.891684,4.60834498 C143.891684,9.31909764 150.563737,8.97773875 150.563737,11.1282997 C150.563737,11.7086098 150.053121,12.1865123 148.997847,12.1865123 C147.636203,12.1865123 146.206478,11.367251 145.35545,10.6162614 L143.449149,13.4154043 Z M128.1647,15.2928782 L131.841138,15.2928782 L131.841138,10.2066307 L133.577234,10.2066307 L136.26648,15.2928782 L140.35141,15.2928782 L137.423877,10.0359513 C137.253671,9.7287283 137.049425,9.4215053 136.845178,9.1142823 L136.845178,9.08014641 C138.342986,8.32915686 139.09189,6.58822653 139.09189,4.98383976 C139.09189,2.79914288 138.002575,1.26302788 136.300521,0.614445998 C135.65374,0.375494777 134.904836,0.27308711 133.372987,0.27308711 L128.130659,0.27308711 L128.130659,15.2928782 L128.1647,15.2928782 Z M131.841138,7.06612898 L131.841138,3.41358888 L133.100658,3.41358888 C133.713398,3.41358888 134.155932,3.48186065 134.496343,3.61840421 C135.177165,3.89149132 135.381411,4.47180143 135.381411,5.22279098 C135.381411,6.41754709 134.632507,7.06612898 133.47511,7.06612898 L131.841138,7.06612898 L131.841138,7.06612898 Z M110.395252,15.2928782 L114.207854,15.2928782 L115.126963,12.1182405 L119.824634,12.1182405 L120.743743,15.2928782 L124.556345,15.2928782 L119.416141,0.238951221 L115.535456,0.238951221 L110.395252,15.2928782 Z M115.977991,9.18255408 L116.829018,6.24686765 C117.101346,5.29106276 117.441757,3.6525401 117.441757,3.6525401 L117.475798,3.6525401 C117.475798,3.6525401 117.816209,5.29106276 118.088538,6.24686765 L118.939565,9.18255408 L115.977991,9.18255408 Z M81.6645727,15.2928782 L87.2132703,15.2928782 C90.2088861,15.2928782 92.9662143,14.0981221 92.9662143,10.8210767 C92.9662143,9.48977708 92.3194336,7.95366208 90.6173792,7.44162375 L90.6173792,7.40748786 C91.7407351,6.75890598 92.3534747,5.4617422 92.3534747,4.19871432 C92.3534747,1.60438677 90.2429272,0.27308711 87.2132703,0.27308711 L81.6645727,0.27308711 L81.6645727,15.2928782 Z M85.3410104,6.0761882 L85.3410104,3.41358888 L87.1792292,3.41358888 C88.1664207,3.41358888 88.5749138,3.99389899 88.5749138,4.71075265 C88.5749138,5.42760631 88.1664207,6.11032409 87.2473113,6.11032409 L85.3410104,6.11032409 L85.3410104,6.0761882 Z M85.3410104,12.1523764 L85.3410104,9.04601052 L87.5877222,9.04601052 C88.6770371,9.04601052 89.1536123,9.7287283 89.1536123,10.5821255 C89.1536123,11.4355227 88.642996,12.1523764 87.5536811,12.1523764 L85.3410104,12.1523764 L85.3410104,12.1523764 Z" id="Bears_00000083805590703277944430000001532132241197583496_"></path>
                <path d="M61.6484123,15.2587423 L65.3588911,15.2587423 L65.3588911,9.14841819 L66.8907401,9.14841819 L70.0906024,15.2246064 L74.2436153,15.2246064 L69.8863559,7.47575964 L69.8863559,7.44162375 L73.9712866,0.27308711 L69.9884792,0.27308711 L66.856699,6.0761882 L65.32485,6.0761882 L65.32485,0.27308711 L61.6143713,0.27308711 L61.6143713,15.2587423 L61.6484123,15.2587423 Z M44.7640322,7.71471086 C44.7640322,12.1523764 47.8277302,15.4976935 52.6956059,15.4976935 C55.4529341,15.4976935 57.4613584,14.3370733 58.7889609,12.9716377 L56.8826599,10.2749025 C55.8614272,11.2989792 54.3636193,12.1182405 52.8658114,12.1182405 C49.9382777,12.1182405 48.6106752,9.83113597 48.6106752,7.6123032 C48.6106752,5.4617422 49.8701955,3.3453171 52.8658114,3.3453171 C54.2274549,3.3453171 55.6912218,4.02803488 56.6443722,4.88143209 L58.3464267,2.1164251 C56.8826599,0.682717775 54.7040302,0 52.6956059,0 C48.0319767,0 44.7640322,3.3453171 44.7640322,7.71471086 Z M28.7306792,15.2587423 L32.5432812,15.2587423 L33.4623906,12.1182405 L38.1600609,12.1182405 L39.0791703,15.2587423 L42.8917723,15.2587423 L37.7515678,0.238951221 L33.8708836,0.238951221 L28.7306792,15.2587423 Z M34.3134178,9.14841819 L35.164445,6.24686765 C35.4367737,5.29106276 35.7771846,3.6525401 35.7771846,3.6525401 L35.8112257,3.6525401 C35.8112257,3.6525401 36.1516366,5.29106276 36.4239653,6.24686765 L37.2749926,9.14841819 L34.3134178,9.14841819 L34.3134178,9.14841819 Z M15.7950653,15.2587423 L25.6669812,15.2587423 L25.6669812,12.1182405 L19.505544,12.1182405 L19.505544,0.238951221 L15.7950653,0.238951221 L15.7950653,15.2587423 L15.7950653,15.2587423 Z M0,15.2587423 L5.54869752,15.2587423 C8.54431336,15.2587423 11.3016416,14.0639862 11.3016416,10.7869409 C11.3016416,9.45564119 10.6548609,7.9195262 8.95280643,7.40748786 L8.95280643,7.37335197 C10.1102035,6.72477009 10.688902,5.42760631 10.688902,4.19871432 C10.688902,1.60438677 8.57835445,0.27308711 5.54869752,0.27308711 L0,0.27308711 L0,15.2587423 L0,15.2587423 Z M3.71047871,6.04205231 L3.71047871,3.37945299 L5.54869752,3.37945299 C6.53588911,3.37945299 6.94438217,3.9597631 6.94438217,4.67661676 C6.94438217,5.39347043 6.53588911,6.0761882 5.6167797,6.0761882 L3.71047871,6.0761882 L3.71047871,6.04205231 Z M3.71047871,12.0841046 L3.71047871,8.97773875 L5.95719059,8.97773875 C7.04650544,8.97773875 7.55712178,9.66045652 7.55712178,10.5138537 C7.55712178,11.367251 7.01246435,12.0841046 5.95719059,12.0841046 L3.71047871,12.0841046 L3.71047871,12.0841046 Z" id="Black_00000156556146995485342220000017334732939073025204_"></path>
                <polygon id="Path" points="106.140116 0.750989553 105.357171 0.102407666 104.199774 0.0682717775 96.2001178 8.43156453 96.9490217 12.28892 101.748815 15.9755959 102.327514 16.1804113 104.438061 14.7467039 104.335938 13.9615785 103.076418 12.0841046 103.75724 9.66045652 106.991143 10.8552126 108.318745 8.84119519 105.493335 5.97378054 106.378403 4.16457843 108.557033 2.7308711 108.522992 1.228892"></polygon>
            </g>
            <g id="Bear_00000150813232392178764390000001643632043978930057_" transform="translate(0.000000, 0.000000)">
                <path d="M16.945664,5.28429862 L71.2056802,41.2516215 C76.4927274,44.7631231 76.5944014,52.5361559 71.3751369,56.1840266 L17.149012,93.9923309 C9.89626779,99.0379838 0,93.8218696 0,84.9578849 L0,14.4892059 C0,5.72749786 9.69291982,0.477291488 16.945664,5.28429862 Z" id="Path" fill="#FF00BD"></path>
                <path d="M22.5377332,5.28429862 L76.865532,41.1493447 C82.1525792,44.6608464 82.2542532,52.4338792 77.06888,56.0817498 L22.9105378,93.9923309 C15.6577936,99.0379838 5.72754456,93.8559619 5.72754456,84.9919771 L5.72754456,14.4551136 C5.69374311,5.65931336 15.2510976,0.477291488 22.5377332,5.28429862 Z" id="Path" fill="#00FF9D"></path>
                <path d="M69.5111138,68.559513 C69.4433312,68.3549595 69.4094399,68.1163138 69.3416572,67.9117603 L69.2399832,67.5026533 C69.2060919,67.3662843 69.1722006,67.2299153 69.1383092,67.1276386 L69.0705266,66.8889928 C68.9688526,66.4457936 68.8671786,66.0366866 68.7655046,65.7298563 C68.596048,65.0139191 68.494374,64.6729966 68.494374,64.6729966 C68.494374,64.6729966 68.4265913,64.4343509 68.291026,63.9229671 C68.1215694,64.4002586 68.0537867,64.6729966 68.0537867,64.6729966 C68.0537867,64.6729966 66.528677,69.104989 64.4951973,73.7415349 L64.3257407,74.1506419 L64.156284,74.5597489 C64.05461,74.7643024 63.9868274,74.9688559 63.8851534,75.1734094 L63.6818054,75.5825163 L63.4784575,75.9916233 C62.8345222,77.3212211 62.190587,78.6167265 61.5127604,79.7417707 C61.4788691,77.4575901 61.1738471,75.4802396 61.1738471,75.4802396 C61.1738471,75.4802396 61.1399558,75.3097784 61.1060645,75.0370404 C60.9366078,75.2075016 60.8349339,75.3438706 60.8010425,75.3779629 C60.7671512,75.4120551 60.6993686,75.4802396 60.5976946,75.5825163 L60.4621293,75.7188853 C59.5470634,76.6052838 56.8357572,79.2644793 53.5821897,81.5827522 C53.2093851,81.8554902 52.8365804,82.0941359 52.4976672,82.3668739 L51.9554059,82.7759809 L51.5826013,83.0487189 C51.4131447,83.1850879 51.2097967,83.3214569 51.0403401,83.4578259 L50.6675354,83.7305639 C48.2612512,85.4692686 46.0583148,87.1397888 44.9737923,88.0943718 C45.041575,86.7647741 44.5670964,85.5715453 44.5670964,85.5715453 C44.5670964,85.5715453 44.5670964,85.5374531 44.5332051,85.5033608 L44.4993137,85.4351764 C44.4654224,85.4010841 44.4654224,85.3328996 44.4315311,85.2647151 C44.2959658,85.4351764 44.1942918,85.5033608 44.1942918,85.5033608 C44.1265091,85.5715453 41.9574641,87.992095 39.9917671,90.9240285 C38.9750273,92.4240874 38.0260701,94.1627921 37.3821348,95.5605743 C36.7720909,94.1627921 35.7892424,92.4240874 34.7725026,90.9240285 C32.7390229,87.9239105 30.5699779,85.5033608 30.5699779,85.5033608 C30.5360866,85.4692686 30.4683039,85.4010841 30.3327386,85.2647151 C30.2310646,85.4692686 30.1971733,85.5715453 30.1971733,85.5715453 L30.1971733,85.5715453 C30.1293906,85.7079143 29.7226947,86.8329586 29.7904774,88.0602795 C28.6381722,87.0716043 26.2657792,85.2647151 23.7239296,83.4578259 L23.351125,83.1850879 C23.2833424,83.1509957 23.2155597,83.0828112 23.1816684,83.0487189 L22.8088638,82.7759809 L22.2666025,82.3668739 C21.8937979,82.0941359 21.5209933,81.8554902 21.18208,81.5827522 C17.8946212,79.230387 15.1494236,76.5711916 14.3021404,75.7188853 L14.2004665,75.6166086 C14.0649011,75.4802396 14.0310098,75.4461474 13.9971185,75.4120551 L13.6920965,75.0711326 L13.6243139,75.5143319 C13.5904226,75.6847931 13.5904226,75.7529776 13.5904226,75.8552543 L13.5904226,75.9234388 C13.5565312,76.0939001 13.5565312,76.2984536 13.5226399,76.5370993 C13.4887486,76.8780218 13.4548572,77.2871288 13.4209659,77.730328 C13.3531833,78.412173 13.3192919,79.1962948 13.3192919,79.9804165 L13.3192919,79.7417707 L13.3192919,79.7417707 C12.4720087,78.3098963 11.6586169,76.6734683 10.8791163,74.9688559 L10.6757683,74.5597489 C8.47283201,69.650465 6.77826561,64.7411811 6.77826561,64.7411811 C6.77826561,64.7411811 6.67659163,64.4684431 6.54102632,63.9911516 L6.54102632,63.9911516 L6.50713499,64.0934284 C6.43935233,64.3320741 6.405461,64.5025354 6.37156967,64.6048121 L6.33767835,64.6729966 C6.33767835,64.7411811 6.30378702,64.7411811 6.30378702,64.7411811 C6.30378702,64.7752734 6.26989569,64.8775501 6.23600436,65.0480114 L6.20211303,65.1843804 C6.16822171,65.3207494 6.13433038,65.4571184 6.10043905,65.6275796 C5.96487374,66.1389633 5.86319975,66.5139781 5.76152577,66.9912696 L5.65985179,67.4344688 L5.62596046,67.6390223 L5.45650382,68.3208673 C5.38872116,68.559513 5.35482983,68.7640665 5.28704718,69.0027123 C1.35565312,40.5356842 10.9807903,25.9782938 11.3874862,25.4328179 C11.3874862,25.4328179 11.4552689,25.2964489 11.3197036,24.9555264 C11.0824643,24.2736814 10.4046377,22.3304232 10.438529,21.5803937 C10.4724204,21.0008255 10.7096597,17.4552316 12.7770307,14.5573904 C13.8615532,13.0232392 15.4883369,11.6595492 17.8946212,11.0458887 C20.1992315,11.079981 25.3168221,13.3641617 25.3168221,13.3641617 L25.8590833,13.3982539 C27.4180844,12.1368407 29.6888034,10.4663205 31.7561744,9.75038325 C31.8917397,9.989029 31.925631,10.534505 31.925631,10.534505 C31.925631,10.534505 31.9595224,10.7390585 31.925631,10.9777042 C32.1628703,10.807243 32.2984356,10.670874 32.2984356,10.670874 C32.3662183,10.6026895 33.6201974,9.47764526 34.2641327,8.07986305 C35.3486552,8.25032429 36.7381996,8.72761578 38.0260701,9.27309177 C39.8562018,10.0572135 41.4829855,10.9777042 41.5846595,11.2504422 C41.6185509,11.3186267 41.5846595,11.4209035 41.5507682,11.625457 C41.6863335,11.5231802 41.8218988,11.4549957 41.9235728,11.352719 C43.5164652,10.1935825 47.6512072,6.95481883 51.9215146,0.78412173 C52.0231886,2.11371945 52.1587539,3.8183319 52.2943192,5.55703661 L52.3282105,6.06842035 C52.5315585,8.42078554 52.7349065,10.7049662 52.8026891,11.8300105 C52.8026891,11.9322872 52.8026891,12.0004717 52.8365804,12.1368407 C52.9382544,12.1027484 53.0060371,12.0686562 53.1077111,12.0345639 C54.5311468,11.5572725 56.0562566,11.079981 57.0729964,11.079981 C59.4792807,11.6936415 61.1060645,13.0232392 62.190587,14.5914826 C64.257958,17.4552316 64.4951973,21.0008255 64.5290886,21.614486 C64.56298,22.5349767 63.5462401,25.1941721 63.5462401,25.1941721 C63.9868274,26.0123861 73.6119645,40.5356842 69.6805705,69.0027123 L69.6805705,69.0027123 L69.5111138,68.559513 Z" id="Border_00000126292389369303309280000004423352409914764714_" stroke="#FFFFFF" stroke-width="1.3276" fill="#000000" fill-rule="nonzero"></path>
                <path d="M69.6466792,70.059572 C68.9349613,67.1958231 68.3249174,64.7070889 68.3249174,64.7070889 C68.3249174,64.7070889 64.8680019,74.7983946 61.3433038,80.457708 C61.3771951,77.9007893 61.0043905,75.4461474 61.0043905,75.4461474 C61.0043905,75.4461474 57.8186057,78.7871878 53.7855376,81.6509367 C50.0236002,84.3101321 45.7532929,87.4466191 44.7026617,88.5034788 C45.0076837,87.0375121 44.3637484,85.5033608 44.3637484,85.5033608 C44.3637484,85.5033608 42.1608121,87.9239105 40.1612237,90.9240285 C39.0428099,92.5945487 37.9921788,94.5718991 37.3821348,96.0037736 C36.7720909,94.5378069 35.7214598,92.5945487 34.6030459,90.9240285 C32.6034576,87.9239105 30.4005213,85.5033608 30.4005213,85.5033608 C30.4005213,85.5033608 29.7904774,87.0375121 30.061608,88.5034788 C29.0109768,87.4125268 24.7406695,84.3101321 20.9787321,81.6509367 C17.0134467,78.7530955 13.7937705,75.4120551 13.7937705,75.4120551 C13.7937705,75.4120551 13.4209659,77.866697 13.4548572,80.4236157 C9.93015912,74.7643024 6.47324366,64.6729966 6.47324366,64.6729966 C6.47324366,64.6729966 5.86319975,67.1617308 5.15148186,70.0254797 C0.677826561,40.1265772 11.1502469,25.1600799 11.1502469,25.1600799 C11.1502469,25.1600799 10.0996158,22.3986077 10.1335071,21.478117 C10.1673984,20.5576262 10.743551,12.5118554 17.7929472,10.7390585 C20.1314489,10.7390585 25.3168221,13.0914237 25.3168221,13.0914237 L25.6896267,13.0914237 C27.2825191,11.7959182 29.6549121,10.0913057 31.7561744,9.40946076 C31.9595224,9.57992201 32.0950877,10.398136 32.0950877,10.398136 C32.0950877,10.398136 33.4507408,9.20490727 34.094676,7.70484831 C36.8398736,8.01167855 41.5507682,10.5685972 41.7541162,11.0458887 C43.3808999,9.85266 47.6850986,6.47752734 52.0570799,0 C52.2265365,3.06830242 52.8026891,9.54582976 53.0060371,11.6936415 C54.4633642,11.1822577 56.0223653,10.7390585 57.0729964,10.7390585 C64.1223927,12.4777632 64.6646539,20.523534 64.7324366,21.478117 C64.7663279,22.3986077 63.7495881,25.1600799 63.7495881,25.1600799 C63.7495881,25.1600799 74.1203345,40.1265772 69.6466792,70.059572 Z M67.3081775,54.5135064 C67.3081775,54.5135064 66.121981,50.490621 65.1052412,49.2633 C67.2403949,60.4114655 63.1395442,68.96862 63.1395442,68.96862 C63.1395442,68.96862 63.0717615,66.4798858 62.4956089,64.3661664 C62.1228043,66.5139781 61.3094125,68.4572363 60.2926726,70.1277565 C58.7336715,67.3662843 56.7340832,65.8321331 55.988474,65.6616718 C52.3621018,69.3095425 45.8888582,74.3551954 37.4160262,78.139435 C28.9431942,74.3551954 22.4699505,69.3095425 18.8435784,65.6616718 C18.0979692,65.8321331 16.0983808,67.3662843 14.5393797,70.1277565 C13.5226399,68.4572363 12.6753567,66.5139781 12.3364434,64.3661664 C11.7602908,66.4798858 11.6925082,68.96862 11.6925082,68.96862 C11.6925082,68.96862 7.59165748,60.4114655 9.72681115,49.2633 C8.71007131,50.490621 7.52387483,54.5135064 7.52387483,54.5135064 C7.52387483,54.5135064 6.71048296,40.3311307 14.0649011,26.0805706 C13.7598792,25.0237109 13.5226399,23.8986666 13.3531833,22.7736224 C14.2343578,16.6029253 15.2172063,15.1028664 18.9452524,14.1482834 C20.9448407,14.5914826 23.859495,15.6142501 25.8590833,17.1484013 C27.5197584,15.8528959 29.1804335,14.6596671 30.264956,14.0460066 C30.5360866,15.2392354 30.5360866,15.4778811 31.5189351,15.1028664 C33.1457188,14.4892059 35.2808725,11.5913647 35.2808725,11.5913647 C35.2808725,11.5913647 37.7888308,12.4095787 40.805159,14.5573904 C40.9746156,14.6596671 41.1440723,14.7960361 41.2796376,14.9324051 C43.7875959,13.6028074 47.4478593,11.352719 49.6507956,8.31850879 C49.9219262,11.9322872 50.2947308,14.5914826 50.6675354,16.2960951 C52.4976672,15.2392354 54.7006035,14.5232981 56.2934959,14.1482834 C60.021542,15.0687741 61.0043905,16.5688331 61.885565,22.7736224 C61.6822171,24.0350356 61.4110864,25.3305411 61.0382818,26.4896776 C68.1215694,40.6038687 67.3081775,54.5135064 67.3081775,54.5135064 Z M28.9431942,59.7637127 C29.2143248,62.0819857 30.7733259,64.3661664 31.6206091,65.0480114 C32.7051316,65.9344098 34.7386113,66.7867161 36.7720909,66.9571773 L36.7720909,65.3889339 C35.8570251,64.9457346 34.2641327,63.9911516 33.5185234,62.3888159 C32.9762622,61.2637717 32.5356749,59.9000817 32.5356749,59.11596 C32.5356749,58.025008 35.3825465,56.4908568 37.4160262,56.4908568 C39.4495059,56.4908568 42.2963774,58.025008 42.2963774,59.11596 C42.2963774,59.9000817 41.8557902,61.297864 41.3135289,62.3888159 C40.5679197,63.9570594 38.9750273,64.9457346 38.0599614,65.3889339 L38.0599614,66.9571773 C40.0934411,66.7867161 42.1269208,65.9344098 43.2114433,65.0480114 C44.0587265,64.3320741 45.6177276,62.0819857 45.8888582,59.7637127 C46.0583148,58.1272848 45.6516189,56.3203956 45.041575,54.5135064 C44.7704444,53.6952924 41.1101809,46.9791193 40.6695937,46.2972743 C39.9917671,45.3426914 37.4160262,45.3085991 37.4160262,45.3085991 C37.4160262,45.3085991 34.8402852,45.3085991 34.1624587,46.2972743 C33.6879801,46.9450271 30.061608,53.6952924 29.7904774,54.5135064 C29.1465421,56.3203956 28.7398462,58.161377 28.9431942,59.7637127 Z M58.2591929,34.1604336 C58.2591929,34.1604336 53.2093851,32.8308359 48.0917945,32.8308359 C45.3804883,32.8308359 42.2963774,33.5126809 40.2628977,33.8536034 C38.331092,34.1604336 37.3821348,34.1604336 37.3821348,34.1604336 C37.3821348,34.1604336 36.4331777,34.1945259 34.501372,33.8536034 C32.4678923,33.5126809 29.4176728,32.8308359 26.6724752,32.8308359 C21.5548846,32.8308359 16.5050768,34.1604336 16.5050768,34.1604336 L16.5050768,36.2741531 C16.5050768,37.0241826 17.35236,37.1264593 17.4879253,37.9446733 C18.8774697,44.7290309 19.9958836,46.9791193 26.5708012,46.9791193 C28.8076288,46.9791193 31.0444565,46.7745658 32.9423709,45.0358611 C34.4674806,43.6039867 35.0775245,40.910699 35.8570251,39.4788245 C36.3992863,38.4901493 37.3482435,38.4219648 37.3482435,38.4219648 C37.3482435,38.4219648 38.2972007,38.456057 38.839462,39.4788245 C39.6189625,40.910699 40.2290064,43.6039867 41.7541162,45.0358611 C43.6181392,46.7745658 45.8888582,46.9791193 48.1256858,46.9791193 C54.7006035,46.9791193 55.8190173,44.7290309 57.2085618,37.9446733 C57.3780184,37.1264593 58.1914103,36.9900903 58.1914103,36.2741531 L58.1914103,34.1604336 L58.2591929,34.1604336 Z M48.2612512,45.9904441 C46.3972281,45.9904441 44.4993137,46.2290898 42.6013994,44.1835549 C41.1101809,42.5471269 39.9917671,39.0356253 39.9917671,37.3991973 C39.9917671,34.7740941 43.075878,33.8195111 48.2273598,33.8195111 C52.7010151,33.8195111 55.9545826,34.0581569 55.9545826,37.7060276 C55.3445387,41.2857137 55.7512347,45.9904441 48.2612512,45.9904441 L48.2612512,45.9904441 Z M32.1967617,44.1835549 C30.2988473,46.2290898 28.4009329,45.9904441 26.5369099,45.9904441 C19.0469264,45.9904441 19.4536223,41.2857137 18.8096871,37.7401198 C18.8096871,34.0922491 22.0632546,33.8536034 26.5369099,33.8536034 C31.6883917,33.8536034 34.7725026,34.8081864 34.7725026,37.4332896 C34.8063939,39.0356253 33.7218714,42.5471269 32.1967617,44.1835549 L32.1967617,44.1835549 Z M18.8435784,67.9799448 C20.8431668,70.2641255 23.7239296,73.6392581 26.6724752,75.8552543 C26.7402578,75.2756861 27.6553237,75.2075016 27.6553237,75.2075016 C27.6553237,75.2075016 34.094676,78.8553723 37.4160262,83.4237337 C40.7373763,78.8553723 47.1767287,75.2075016 47.1767287,75.2075016 C47.1767287,75.2075016 48.0917945,75.2756861 48.1595772,75.8552543 C51.0742314,73.6051659 53.9888856,70.2641255 55.988474,67.9799448 C56.9374311,68.695882 58.3947582,69.4459115 59.5470634,71.3209852 C57.3102357,74.5597489 54.7006035,76.5030071 54.7006035,76.5030071 C54.7006035,76.5030071 55.9545826,74.3551954 55.988474,71.5937232 C53.5821897,75.3438706 46.5327934,82.0941359 46.5327934,82.0941359 C46.5327934,82.0941359 46.2955541,80.457708 46.6344674,79.366756 C41.0762896,82.6055197 37.4160262,89.3216928 37.4160262,89.3216928 C37.4160262,89.3216928 33.7557627,82.6055197 28.1975849,79.366756 C28.5364982,80.4918002 28.2992589,82.0941359 28.2992589,82.0941359 C28.2992589,82.0941359 21.2498627,75.3438706 18.8435784,71.5937232 C18.8774697,74.3551954 20.1314489,76.5030071 20.1314489,76.5030071 C20.1314489,76.5030071 17.5218166,74.5256566 15.284989,71.3209852 C16.4372941,69.4459115 17.8946212,68.695882 18.8435784,67.9799448 Z" id="Border_00000108295670008103477530000006642367807169040311_" fill="#FFFFFF"></path>
            </g>
            <polygon id="Path" fill="#FF00BD" fill-rule="nonzero" points="209.248908 66.8790333 181.20524 66.8790333 181.20524 63.642951 205.851694 63.642951 207.98328 63.642951"></polygon>
            <polygon id="Path" fill="#FF00BD" fill-rule="nonzero" points="227.132836 66.2545262 227.132836 66.8790333 237.640513 66.8790333 237.640513 66.3396862 239.449782 63.642951 225.427948 63.642951"></polygon>
            <polygon id="Path" fill="#FF00BD" fill-rule="nonzero" points="209.346963 77.6659741 212.484716 77.6659741 211.338229 74.4298919 208.170306 74.4298919"></polygon>
            <rect id="Rectangle" fill="#FF00BD" fill-rule="nonzero" x="148.847162" y="63.642951" width="3.23580786" height="3.23608226"></rect>
            <rect id="Rectangle" fill="#FF00BD" fill-rule="nonzero" x="165.026201" y="74.4298919" width="3.23580786" height="3.23608226"></rect>
            <rect id="Rectangle" fill="#FF00BD" fill-rule="nonzero" x="129.432314" y="43.1477634" width="3.23580786" height="3.23608226"></rect>
            <rect id="Rectangle" fill="#FF00BD" fill-rule="nonzero" x="105.703057" y="74.4298919" width="3.23580786" height="3.23608226"></rect>
            <rect id="Rectangle" fill="#FF00BD" fill-rule="nonzero" x="87.3668122" y="43.1477634" width="3.23580786" height="3.23608226"></rect>
            <polygon id="Path" fill="#FF00BD" fill-rule="nonzero" points="186.500198 77.6659741 183.362445 77.6659741 184.539103 74.4298919 187.676856 74.4298919"></polygon>
            <polygon id="Path" fill="#FF00BD" fill-rule="nonzero" points="176.792775 46.3838457 173.655022 46.3838457 174.801509 43.1477634 177.969432 43.1477634"></polygon>
            <polygon id="Path" fill="#FF00BD" fill-rule="nonzero" points="201.69869 43.1477634 203.676128 46.3838457 208.170306 46.3838457 206.0131 43.1477634"></polygon>
            <polygon id="Path" fill="#FF00BD" fill-rule="nonzero" points="230.820961 43.1477634 228.807569 46.3838457 224.349345 46.3838457 226.50655 43.1477634"></polygon>
            <rect id="Rectangle" fill="#FF00BD" fill-rule="nonzero" x="234.056769" y="74.4298919" width="3.23580786" height="3.23608226"></rect>
            <g id="Group" transform="translate(88.445415, 39.911681)" fill="#00FF9D" fill-rule="nonzero">
                <polygon id="Path" points="91.3479226 32.6481129 90.8017467 34.5706096 103.363793 34.5706096 102.817617 32.6481129"></polygon>
                <path d="M12.7327261,28.0478531 L20.0378291,28.0478531 C21.4032689,28.0478531 22.7004367,27.8762016 23.8951965,27.4985683 L2.35538366,27.4985683 L2.35538366,34.5362793 L12.7327261,34.5362793 L12.7327261,28.0478531 L12.7327261,28.0478531 Z" id="Path"></path>
                <path d="M31.5757954,20.8041603 C32.6681472,18.6756819 33.2143231,16.4098822 33.2143231,14.0410917 C33.2143231,12.2902465 32.8729632,10.5737316 32.2243793,8.92587736 C31.9171553,8.13628051 31.5416594,7.34668367 31.0978915,6.62574742 L2.35538366,6.62574742 L2.35538366,23.5505841 L29.7324517,23.5505841 C30.4493075,22.726657 31.0637555,21.8340692 31.5757954,20.8041603 Z M21.0619089,18.2980486 C20.584005,18.6413516 20.0719651,18.7786727 19.4916532,18.7786727 L12.7327261,18.7786727 L12.7327261,9.30351063 L19.1502932,9.30351063 C19.7306051,9.30351063 20.310917,9.44083182 20.857093,9.78413479 C21.4032689,10.0931075 21.8470368,10.6080619 22.2225328,11.2603376 C22.5980287,11.9469435 22.7687087,12.8738616 22.7687087,13.9724311 C22.7687087,15.0710006 22.5980287,15.9635883 22.2908047,16.7188549 C21.9494448,17.4397911 21.5398129,17.9547456 21.0619089,18.2980486 Z" id="Shape"></path>
                <rect id="Rectangle" x="2.35538366" y="38.4842635" width="10.3773425" height="2.30012993"></rect>
                <path d="M25.2265003,1.23589071 C23.5879726,0.446293868 21.7446288,0.0343302975 19.7647411,0.0343302975 L2.35538366,0.0343302975 L2.35538366,2.7120935 L27.581884,2.7120935 C26.8650281,2.12847845 26.0799002,1.64785428 25.2265003,1.23589071 Z" id="Path"></path>
                <polygon id="Path" points="82.131204 27.4985683 79.7416843 34.5706096 90.8017467 34.5706096 91.3479226 32.6481129 102.817617 32.6481129 103.363793 34.5706096 114.492127 34.5706096 112.068472 27.4985683"></polygon>
                <polygon id="Path" points="102.681073 0 91.5186026 0 90.5969308 2.7120935 103.636881 2.7120935"></polygon>
                <polygon id="Path" points="105.241273 40.9903752 116.676831 40.9903752 115.823431 38.4842635 104.524417 38.4842635"></polygon>
                <polygon id="Path" points="77.5569807 40.9903752 88.958403 40.9903752 89.6752589 38.4842635 78.3762445 38.4842635"></polygon>
                <path d="M94.0105303,23.5849144 L96.05869,16.7188549 C96.4000499,15.5172945 96.8096818,13.8694402 97.1169058,12.5305586 C97.4241298,13.9037705 97.7996257,15.5172945 98.1751216,16.7188549 L100.155009,23.5849144 L110.737168,23.5849144 L104.968185,6.66007772 L89.2656269,6.66007772 L83.4966438,23.5849144 L94.0105303,23.5849144 Z" id="Path"></path>
                <rect id="Rectangle" x="130.570181" y="27.4985683" width="10.3090705" height="7.03771099"></rect>
                <rect id="Rectangle" x="130.570181" y="38.4842635" width="10.3090705" height="2.30012993"></rect>
                <polygon id="Path" points="127.702757 0 116.369607 0 117.803319 2.7120935 128.999925 2.7120935"></polygon>
                <polygon id="Path" points="135.758852 16.6501943 130.911541 6.62574742 119.885614 6.62574742 128.897517 23.5849144 142.620187 23.5849144 151.734498 6.62574742 140.674435 6.62574742"></polygon>
                <polygon id="Path" points="155.318777 0 143.917355 0 142.586051 2.7120935 153.85093 2.7120935"></polygon>
                <polygon id="Path" points="54.958952 31.3435616 54.958952 27.4985683 43.8988896 27.4985683 43.8988896 34.5706096 71.2076856 34.5706096 71.2076856 31.3435616"></polygon>
                <rect id="Rectangle" x="43.8988896" y="6.62574742" width="11.0600624" height="16.9248367"></rect>
                <rect id="Rectangle" x="43.8988896" y="0" width="11.0600624" height="2.7120935"></rect>
                <rect id="Rectangle" x="43.8988896" y="38.4842635" width="27.308796" height="2.47178142"></rect>
                <path d="M27.10398,4.42860838 C26.5236681,3.77633273 25.9092202,3.22704797 25.2265003,2.7120935 L0,2.7120935 L0,6.66007772 L28.7425078,6.66007772 C28.2646039,5.87048088 27.7184279,5.11521433 27.10398,4.42860838 Z" id="Path"></path>
                <polygon id="Path" points="102.578665 6.62574742 101.247361 2.7120935 88.2074111 2.7120935 86.8761073 6.62574742"></polygon>
                <polygon id="Path" points="128.522021 6.62574742 126.610405 2.7120935 115.413799 2.7120935 117.496095 6.62574742"></polygon>
                <polygon id="Path" points="140.230667 2.7120935 138.284916 6.62574742 149.379114 6.62574742 151.46141 2.7120935"></polygon>
                <rect id="Rectangle" x="41.5093699" y="2.7120935" width="11.0600624" height="3.94798421"></rect>
                <path d="M29.3910917,26.0223655 C30.4151716,25.3357596 31.3368434,24.5118324 32.1219713,23.5849144 L4.74490331,23.5849144 L4.74490331,27.5328986 L26.2847162,27.5328986 C27.411204,27.1895956 28.4352838,26.6746412 29.3910917,26.0223655 Z" id="Path"></path>
                <polygon id="Path" points="96.4000499 23.5849144 85.8520274 23.5849144 84.5207236 27.4985683 114.457991 27.4985683 113.126687 23.5849144 102.510393 23.5849144"></polygon>
                <polygon id="Path" points="133.062109 26.7433018 133.062109 27.4985683 143.371179 27.4985683 143.371179 26.8462927 145.146251 23.5849144 131.389445 23.5849144"></polygon>
                <rect id="Rectangle" x="46.2884092" y="23.5849144" width="11.0600624" height="3.94798421"></rect>
                <rect id="Rectangle" x="4.74490331" y="34.5706096" width="10.3773425" height="3.94798421"></rect>
                <polygon id="Path" points="105.753313 34.5706096 106.913936 38.4842635 118.212951 38.4842635 116.881647 34.5706096"></polygon>
                <polygon id="Path" points="82.097068 34.5706096 80.7657642 38.4842635 92.0647785 38.4842635 93.1912664 34.5706096"></polygon>
                <rect id="Rectangle" x="132.959701" y="34.5706096" width="10.3090705" height="3.94798421"></rect>
                <rect id="Rectangle" x="46.2884092" y="34.5706096" width="27.308796" height="3.94798421"></rect>
            </g>
            <g id="Group" transform="translate(91.681223, 39.911681)" fill="#FFFFFF" fill-rule="nonzero">
                <path d="M12.7327261,28.0478531 L20.0378291,28.0478531 C21.4032689,28.0478531 22.7004367,27.8762016 23.8951965,27.4985683 L2.35538366,27.4985683 L2.35538366,34.5362793 L12.7327261,34.5362793 L12.7327261,28.0478531 L12.7327261,28.0478531 Z" id="Path"></path>
                <path d="M31.5757954,20.8041603 C32.6681472,18.6756819 33.2143231,16.4098822 33.2143231,14.0410917 C33.2143231,12.2902465 32.8729632,10.5737316 32.2243793,8.92587736 C31.9171553,8.13628051 31.5416594,7.34668367 31.0978915,6.62574742 L2.35538366,6.62574742 L2.35538366,23.5505841 L29.7324517,23.5505841 C30.4493075,22.726657 31.0637555,21.8340692 31.5757954,20.8041603 Z M21.0619089,18.2980486 C20.584005,18.6413516 20.0719651,18.7786727 19.4916532,18.7786727 L12.7327261,18.7786727 L12.7327261,9.30351063 L19.1502932,9.30351063 C19.7306051,9.30351063 20.310917,9.44083182 20.857093,9.78413479 C21.4032689,10.0931075 21.8470368,10.6080619 22.2225328,11.2603376 C22.5980287,11.9469435 22.7687087,12.8738616 22.7687087,13.9724311 C22.7687087,15.0710006 22.5980287,15.9635883 22.2908047,16.7188549 C21.9494448,17.4397911 21.5398129,17.9547456 21.0619089,18.2980486 Z" id="Shape"></path>
                <rect id="Rectangle" x="2.35538366" y="38.4842635" width="10.3773425" height="2.30012993"></rect>
                <path d="M25.2265003,1.23589071 C23.5879726,0.446293868 21.7446288,0.0343302975 19.7647411,0.0343302975 L2.35538366,0.0343302975 L2.35538366,2.7120935 L27.581884,2.7120935 C26.8650281,2.12847845 26.0799002,1.64785428 25.2265003,1.23589071 Z" id="Path"></path>
                <polygon id="Path" points="82.131204 27.4985683 79.7416843 34.5706096 90.8017467 34.5706096 91.3479226 32.6481129 102.817617 32.6481129 103.363793 34.5706096 114.492127 34.5706096 112.068472 27.4985683"></polygon>
                <polygon id="Path" points="102.681073 0 91.5186026 0 90.5969308 2.7120935 103.636881 2.7120935"></polygon>
                <polygon id="Path" points="105.241273 40.9903752 116.676831 40.9903752 115.823431 38.4842635 104.524417 38.4842635"></polygon>
                <polygon id="Path" points="77.5569807 40.9903752 88.958403 40.9903752 89.6752589 38.4842635 78.3762445 38.4842635"></polygon>
                <path d="M94.0105303,23.5849144 L96.05869,16.7188549 C96.4000499,15.5172945 96.8096818,13.8694402 97.1169058,12.5305586 C97.4241298,13.9037705 97.7996257,15.5172945 98.1751216,16.7188549 L100.155009,23.5849144 L110.737168,23.5849144 L104.968185,6.66007772 L89.2656269,6.66007772 L83.4966438,23.5849144 L94.0105303,23.5849144 Z" id="Path"></path>
                <rect id="Rectangle" x="130.570181" y="27.4985683" width="10.3090705" height="7.03771099"></rect>
                <rect id="Rectangle" x="130.570181" y="38.4842635" width="10.3090705" height="2.30012993"></rect>
                <polygon id="Path" points="127.702757 0 116.369607 0 117.803319 2.7120935 128.999925 2.7120935"></polygon>
                <polygon id="Path" points="135.758852 16.6501943 130.911541 6.62574742 119.885614 6.62574742 128.897517 23.5849144 142.654323 23.5849144 151.734498 6.62574742 140.674435 6.62574742"></polygon>
                <polygon id="Path" points="155.318777 0 143.917355 0 142.586051 2.7120935 153.85093 2.7120935"></polygon>
                <polygon id="Path" points="54.958952 31.3435616 54.958952 27.4985683 43.8988896 27.4985683 43.8988896 34.5706096 71.2076856 34.5706096 71.2076856 31.3435616"></polygon>
                <rect id="Rectangle" x="43.8988896" y="6.62574742" width="11.0600624" height="16.9248367"></rect>
                <rect id="Rectangle" x="43.8988896" y="0" width="11.0600624" height="2.7120935"></rect>
                <rect id="Rectangle" x="43.8988896" y="38.4842635" width="27.308796" height="2.47178142"></rect>
                <path d="M27.10398,4.42860838 C26.5236681,3.77633273 25.9092202,3.22704797 25.2265003,2.7120935 L0,2.7120935 L0,6.66007772 L28.7425078,6.66007772 C28.2646039,5.87048088 27.7184279,5.11521433 27.10398,4.42860838 Z" id="Path"></path>
                <polygon id="Path" points="102.578665 6.62574742 101.247361 2.7120935 88.2074111 2.7120935 86.8761073 6.62574742"></polygon>
                <polygon id="Path" points="128.522021 6.62574742 126.610405 2.7120935 115.413799 2.7120935 117.530231 6.62574742"></polygon>
                <polygon id="Path" points="140.230667 2.7120935 138.284916 6.62574742 149.379114 6.62574742 151.495546 2.7120935"></polygon>
                <rect id="Rectangle" x="41.5093699" y="2.7120935" width="11.0600624" height="3.94798421"></rect>
                <path d="M29.3910917,26.0223655 C30.4151716,25.3357596 31.3368434,24.5118324 32.1219713,23.5849144 L4.74490331,23.5849144 L4.74490331,27.5328986 L26.2847162,27.5328986 C27.411204,27.1895956 28.4352838,26.6746412 29.3910917,26.0223655 Z" id="Path"></path>
                <polygon id="Path" points="96.4000499 23.5849144 85.8520274 23.5849144 84.5207236 27.4985683 114.457991 27.4985683 113.126687 23.5849144 102.510393 23.5849144"></polygon>
                <polygon id="Path" points="133.062109 26.7433018 133.062109 27.4985683 143.371179 27.4985683 143.371179 26.8462927 145.146251 23.5849144 131.389445 23.5849144"></polygon>
                <rect id="Rectangle" x="46.2884092" y="23.5849144" width="11.0600624" height="3.94798421"></rect>
                <rect id="Rectangle" x="4.74490331" y="34.5706096" width="10.3773425" height="3.94798421"></rect>
                <polygon id="Path" points="105.753313 34.5706096 106.913936 38.4842635 118.212951 38.4842635 116.881647 34.5706096"></polygon>
                <polygon id="Path" points="82.097068 34.5706096 80.7657642 38.4842635 92.0647785 38.4842635 93.1912664 34.5706096"></polygon>
                <rect id="Rectangle" x="132.959701" y="34.5706096" width="10.3090705" height="3.94798421"></rect>
                <rect id="Rectangle" x="46.2884092" y="34.5706096" width="27.308796" height="3.94798421"></rect>
            </g>
        </g>
    </g>
</svg>