<svg width="16" height="16" viewBox="0 0 16 16" fill="none" xmlns="http://www.w3.org/2000/svg">
<path d="M13.6 0H2.4C1.76348 0 1.15303 0.252856 0.702944 0.702944C0.252856 1.15303 0 1.76348 0 2.4V13.6C0 14.2365 0.252856 14.847 0.702944 15.2971C1.15303 15.7471 1.76348 16 2.4 16H13.6C13.7316 15.9982 13.8628 15.9848 13.992 15.96L14.232 15.904H14.288H14.328L14.624 15.792L14.728 15.736C14.808 15.688 14.896 15.648 14.976 15.592C15.0828 15.5134 15.1844 15.4279 15.28 15.336L15.336 15.264C15.4145 15.1844 15.4868 15.0988 15.552 15.008L15.624 14.904C15.6799 14.8149 15.7281 14.7213 15.768 14.624C15.79 14.5856 15.8087 14.5455 15.824 14.504C15.864 14.408 15.888 14.304 15.92 14.2V14.08C15.9654 13.9237 15.9922 13.7626 16 13.6V2.4C16 1.76348 15.7471 1.15303 15.2971 0.702944C14.847 0.252856 14.2365 0 13.6 0ZM2.4 14.4C2.18783 14.4 1.98434 14.3157 1.83431 14.1657C1.68429 14.0157 1.6 13.8122 1.6 13.6V10.152L4.232 7.512C4.30637 7.43702 4.39485 7.3775 4.49234 7.33689C4.58983 7.29627 4.69439 7.27536 4.8 7.27536C4.90561 7.27536 5.01017 7.29627 5.10766 7.33689C5.20515 7.3775 5.29363 7.43702 5.368 7.512L12.248 14.4H2.4ZM14.4 13.6C14.3992 13.6986 14.3803 13.7963 14.344 13.888C14.3257 13.927 14.3043 13.9645 14.28 14C14.2586 14.0339 14.2345 14.066 14.208 14.096L9.928 9.816L10.632 9.112C10.7064 9.03702 10.7949 8.9775 10.8923 8.93689C10.9898 8.89627 11.0944 8.87536 11.2 8.87536C11.3056 8.87536 11.4102 8.89627 11.5077 8.93689C11.6051 8.9775 11.6936 9.03702 11.768 9.112V9.112L14.4 11.752V13.6ZM14.4 9.488L12.896 8C12.4382 7.56559 11.8311 7.32342 11.2 7.32342C10.5689 7.32342 9.96182 7.56559 9.504 8L8.8 8.704L6.496 6.4C6.03818 5.96559 5.43112 5.72342 4.8 5.72342C4.16888 5.72342 3.56182 5.96559 3.104 6.4L1.6 7.888V2.4C1.6 2.18783 1.68429 1.98434 1.83431 1.83431C1.98434 1.68429 2.18783 1.6 2.4 1.6H13.6C13.8122 1.6 14.0157 1.68429 14.1657 1.83431C14.3157 1.98434 14.4 2.18783 14.4 2.4V9.488Z" fill="#6C8197"/>
</svg>
