<svg width="20" height="20" viewBox="0 0 20 20" fill="none" xmlns="http://www.w3.org/2000/svg">
<path fill-rule="evenodd" clip-rule="evenodd" d="M10 5.125C5.58172 5.125 2 8.70672 2 13.125C2 13.6773 1.55228 14.125 1 14.125C0.447715 14.125 0 13.6773 0 13.125C0 7.602 4.477 3.125 10 3.125C15.523 3.125 20 7.602 20 13.125C20 13.6773 19.5523 14.125 19 14.125C18.4477 14.125 18 13.6773 18 13.125C18 8.70672 14.4183 5.125 10 5.125ZM10 9.125C7.79086 9.125 6 10.9159 6 13.125C6 15.3341 7.79086 17.125 10 17.125C12.2091 17.125 14 15.3341 14 13.125C14 10.9159 12.2091 9.125 10 9.125Z" fill="white"/>
</svg>
