<svg width="20" height="20" viewBox="0 0 20 20" fill="none" xmlns="http://www.w3.org/2000/svg">
<path fill-rule="evenodd" clip-rule="evenodd" d="M17.7881 2.21194C14.8288 -0.737312 10.03 -0.737312 7.09078 2.21194C5.02131 4.26142 4.40147 7.21067 5.20126 9.81L0.50246 14.5088C0.172544 14.8487 -0.0573977 15.5186 0.0125845 15.9984L0.312508 18.1779C0.42248 18.8977 1.09231 19.5775 1.81213 19.6775L3.99157 19.9774C4.47145 20.0474 5.14128 19.8275 5.48119 19.4775L6.30098 18.6578C6.50093 18.4678 6.50093 18.1479 6.30098 17.9479L4.36148 16.0084C4.07155 15.7185 4.07155 15.2386 4.36148 14.9487C4.6514 14.6588 5.13128 14.6588 5.42121 14.9487L7.37071 16.8982C7.56066 17.0882 7.88058 17.0882 8.07053 16.8982L10.19 14.7887C12.7793 15.5985 15.7286 14.9687 17.7881 12.9192C20.7373 9.96996 20.7373 5.16119 17.7881 2.21194ZM12.4994 9.98996C11.119 9.98996 10 8.87096 10 7.49059C10 6.11023 11.119 4.99123 12.4994 4.99123C13.8798 4.99123 14.9988 6.11023 14.9988 7.49059C14.9988 8.87096 13.8798 9.98996 12.4994 9.98996Z" fill="white"/>
</svg>
