<svg width="20" height="20" viewBox="0 0 20 20" fill="none" xmlns="http://www.w3.org/2000/svg">
<rect opacity="0.01" x="0.5" y="0.5" width="19" height="19" fill="#D8D8D8" stroke="#979797"/>
<path d="M18.3099 8.3333H5.67034L11.1658 2.85448C11.4793 2.54088 11.6555 2.11559 11.6555 1.67212C11.6555 1.22864 11.4793 0.803337 11.1658 0.489762C10.8522 0.176171 10.4269 0 9.98341 0C9.53995 0 9.11463 0.176171 8.80106 0.489762L0.474633 8.81624C0.323025 8.9746 0.204173 9.16128 0.124922 9.36578C-0.0416406 9.77111 -0.0416406 10.2259 0.124922 10.6314C0.204173 10.8357 0.323025 11.0226 0.474633 11.181L8.80106 19.5074C8.95593 19.6634 9.14011 19.7873 9.34294 19.8719C9.54594 19.9564 9.7636 20 9.98341 20C10.2032 20 10.4209 19.9564 10.6239 19.8719C10.8269 19.7873 11.0111 19.6634 11.1658 19.5074C11.3218 19.3525 11.4457 19.1684 11.5303 18.9655C11.6149 18.7625 11.6584 18.5449 11.6584 18.3251C11.6584 18.1052 11.6149 17.8876 11.5303 17.6846C11.4457 17.4816 11.3218 17.2974 11.1658 17.1427L5.67034 11.6639H18.3099C18.7515 11.6639 19.1752 11.4884 19.4874 11.1761C19.7998 10.8639 19.9752 10.4402 19.9752 9.99859C19.9752 9.55696 19.7998 9.13331 19.4874 8.82106C19.1752 8.50866 18.7515 8.3333 18.3099 8.3333Z" fill="white"/>
</svg>
