<svg width="20" height="20" viewBox="0 0 20 20" fill="none" xmlns="http://www.w3.org/2000/svg">
<g clip-path="url(#clip0_947_4362)">
<path d="M20 10C20 4.486 15.514 0 10 0C4.486 0 0 4.486 0 10C0 15.514 4.486 20 10 20C15.514 20 20 15.514 20 10ZM13.4192 13.4757C13.1346 13.7227 12.7616 13.8462 12.3886 13.8462C12.0157 13.8462 11.6426 13.7227 11.3581 13.4757L9.65771 12.0005C9.38439 11.7634 9.23077 11.4418 9.23077 11.1064V8.9568C9.23077 8.25846 9.88333 7.69231 10.6883 7.69231C11.4932 7.69231 12.1457 8.25846 12.1457 8.9568V10.5827L13.4192 11.6876C13.9885 12.1813 13.9885 12.982 13.4192 13.4757Z" fill="white"/>
</g>
<defs>
<clipPath id="clip0_947_4362">
<rect width="20" height="20" fill="white"/>
</clipPath>
</defs>
</svg>
