<svg width="32" height="32" viewBox="0 0 32 32" fill="none" xmlns="http://www.w3.org/2000/svg">
<rect opacity="0.01" x="0.5" y="0.5" width="31" height="31" fill="#D8D8D8" stroke="#979797"/>
<path opacity="0.01" d="M24.047 14.2352L10.4959 0.708198C10.2734 0.483792 10.0086 0.305689 9.71682 0.184136C9.42506 0.0625838 9.11212 0 8.79606 0C8.48001 0 8.16707 0.0625838 7.87533 0.184136C7.58358 0.305689 7.31876 0.483792 7.0962 0.708198C6.65028 1.15677 6.39999 1.76358 6.39999 2.39609C6.39999 3.02859 6.65028 3.63542 7.0962 4.08399L18.9474 16.0548L7.0962 27.906C6.65028 28.3546 6.39999 28.9615 6.39999 29.5939C6.39999 30.2264 6.65028 30.8333 7.0962 31.2817C7.31795 31.508 7.58236 31.688 7.87416 31.8113C8.16594 31.9346 8.47929 31.9988 8.79606 32C9.11284 31.9988 9.42619 31.9346 9.71799 31.8113C10.0098 31.688 10.2742 31.508 10.4959 31.2817L24.047 17.7546C24.29 17.5305 24.484 17.2586 24.6166 16.9557C24.7492 16.6528 24.8177 16.3258 24.8177 15.9949C24.8177 15.6643 24.7492 15.3372 24.6166 15.0344C24.484 14.7315 24.29 14.4595 24.047 14.2352Z" fill="white"/>
<path fill-rule="evenodd" clip-rule="evenodd" d="M9.18143 27.6186C9.97069 28.4079 11.2504 28.4079 12.0396 27.6186L22.8185 16.8396C23.6078 16.0504 23.6078 14.7709 22.8185 13.9816L12.0396 3.20254C11.2504 2.41328 9.97069 2.41328 9.18143 3.20254C8.39216 3.99181 8.39216 5.27149 9.18143 6.06075L16 15.4106L9.18143 24.7606C8.39216 25.5499 8.39216 26.8293 9.18143 27.6186Z" fill="white"/>
</svg>
