<svg width="24" height="24" viewBox="0 0 24 24" fill="none" xmlns="http://www.w3.org/2000/svg">
<path fill-rule="evenodd" clip-rule="evenodd" d="M12 0C6.6178 0.00619952 2.2562 4.3678 2.25 9.75001C2.25 19.0755 11.2785 23.7263 11.6625 23.9198C11.8748 24.0267 12.1252 24.0267 12.3375 23.9198C12.7215 23.7263 21.75 19.0755 21.75 9.75001C21.7438 4.3678 17.3822 0.00619952 12 0ZM12 15C9.10051 15 6.75 12.6495 6.75 9.75001C6.75 6.85051 9.10051 4.5 12 4.5C14.8995 4.5 17.25 6.85051 17.25 9.75001C17.2467 12.6481 14.8981 14.9967 12 15Z" fill="white"/>
</svg>
