<svg width="20" height="18" viewBox="0 0 20 18" fill="none" xmlns="http://www.w3.org/2000/svg">
<path fill-rule="evenodd" clip-rule="evenodd" d="M4 0.25H16C18.21 0.25 20 1.98056 20 4.10972V13.8903C20 16.0194 18.21 17.75 16 17.75H4C1.79 17.75 0 16.0194 0 13.8903V4.10972C0 1.98056 1.79 0.25 4 0.25ZM8.81 6.55C8.81 5.31528 7.77 4.30417 6.5 4.30417C5.23 4.30417 4.19 5.31528 4.19 6.55C4.19 7.78472 5.23 8.79583 6.5 8.79583C7.77 8.79583 8.81 7.78472 8.81 6.55ZM10.37 13.5306C10.28 13.6278 10.14 13.6861 10 13.6861H3C2.86 13.6861 2.72 13.6278 2.63 13.5306C2.54 13.4333 2.49 13.2972 2.5 13.1611C2.67235 11.5261 4.00725 10.2364 5.69 10.0792C6.2255 10.0306 6.7645 10.0306 7.3 10.0792C8.98 10.2347 10.33 11.5278 10.49 13.1611C10.51 13.2972 10.46 13.4333 10.37 13.5306ZM14.25 12.8889C14.25 13.2875 14.59 13.6181 15 13.6181H17C17.41 13.6181 17.75 13.2875 17.75 12.8889C17.75 12.4903 17.41 12.1597 17 12.1597H15C14.59 12.1597 14.25 12.4903 14.25 12.8889ZM17 9.72917H13C12.59 9.72917 12.25 9.39861 12.25 9C12.25 8.60139 12.59 8.27083 13 8.27083H17C17.41 8.27083 17.75 8.60139 17.75 9C17.75 9.39861 17.41 9.72917 17 9.72917ZM12 5.84028H17C17.41 5.84028 17.75 5.50972 17.75 5.11111C17.75 4.7125 17.41 4.38194 17 4.38194H12C11.59 4.38194 11.25 4.7125 11.25 5.11111C11.25 5.50972 11.59 5.84028 12 5.84028Z" fill="white"/>
</svg>
