<svg width="20" height="20" viewBox="0 0 20 20" fill="none" xmlns="http://www.w3.org/2000/svg">
<g clip-path="url(#clip0_4227_846)">
<path fill-rule="evenodd" clip-rule="evenodd" d="M19.6631 4.64696C19.9626 5.75007 19.9959 7.22612 19.9996 9.40099L20.0001 9.95946L20.0001 10.25C20.0001 10.3437 20.0001 10.4362 20.0001 10.5276L19.9997 11.0624C19.9947 14.2772 19.9285 15.9735 19.0451 17.189C18.7367 17.6134 18.3635 17.9866 17.9391 18.295C16.7236 19.1783 15.0282 19.2446 11.8127 19.2496L11.2778 19.2499L11.0001 19.25H9.00008C8.90636 19.25 8.81381 19.25 8.7224 19.2499L8.18761 19.2496C4.97285 19.2446 3.27654 19.1783 2.06109 18.295C1.63668 17.9866 1.26345 17.6134 0.955085 17.189C0.0717103 15.9735 0.00545727 14.2781 0.000488281 11.0626L0.000542181 9.40378C0.0041965 7.23577 0.0370854 5.76219 0.333085 4.65996L0.484085 4.79496L2.69372 7.0047C4.20441 8.51544 5.40972 9.70644 6.48309 10.525C7.64209 11.409 8.73409 11.929 10.0001 11.929C11.2651 11.929 12.3581 11.409 13.5171 10.525C14.6491 9.66096 15.9281 8.38196 17.5611 6.74996L19.6631 4.64696ZM11.8126 1.25037C15.0273 1.25534 16.7236 1.32159 17.9391 2.20496C18.3641 2.51296 18.6661 2.79096 18.9741 3.21596L18.8481 3.34096L16.5411 5.64896L16.0939 6.09571C14.6406 7.54602 13.5553 8.60933 12.6071 9.33296C11.5821 10.115 10.8051 10.429 10.0001 10.429C9.19409 10.429 8.41809 10.115 7.39309 9.33296C6.35009 8.53696 5.14109 7.32996 3.45909 5.64996L1.51609 3.70496L1.10909 3.33996L1.00009 3.24996C1.30809 2.82496 1.63709 2.51296 2.06109 2.20496C3.27654 1.32159 4.97199 1.25534 8.18742 1.25037H11.8126Z" fill="white"/>
</g>
<defs>
<clipPath id="clip0_4227_846">
<rect width="20" height="20" fill="white"/>
</clipPath>
</defs>
</svg>
