<svg width="28" height="28" viewBox="0 0 28 28" fill="none" xmlns="http://www.w3.org/2000/svg">
<path fill-rule="evenodd" clip-rule="evenodd" d="M23.8693 4.7851L16.6304 0.598575C15.2442 -0.199525 13.074 -0.199525 11.6878 0.598575L4.37888 4.8131C1.48052 6.77335 1.3125 7.06738 1.3125 10.1898V17.7927C1.3125 20.9151 1.48052 21.2232 4.43489 23.2114L11.6738 27.3979C12.3739 27.804 13.27 28 14.1521 28C15.0342 28 15.9303 27.804 16.6164 27.3979L23.9253 23.1834C26.8237 21.2232 26.9917 20.9291 26.9917 17.8067V10.1898C26.9917 7.06738 26.8237 6.77335 23.8693 4.7851ZM14.1521 18.5488C11.6458 18.5488 9.60154 16.5046 9.60154 13.9983C9.60154 11.4919 11.6458 9.44768 14.1521 9.44768C16.6584 9.44768 18.7027 11.4919 18.7027 13.9983C18.7027 16.5046 16.6584 18.5488 14.1521 18.5488Z" fill="white"/>
</svg>
