<svg width="130" height="31" viewBox="0 0 130 31" fill="none" xmlns="http://www.w3.org/2000/svg">
<path fill-rule="evenodd" clip-rule="evenodd" d="M7.63588 3.60088L121.936 2.00153C126.27 1.94089 129.879 3.69288 129.997 5.91471C130.006 6.0896 129.993 6.26461 129.958 6.43862L125.731 27.3896C125.312 29.4636 121.874 31.0303 117.807 30.9996L10.4888 30.1882C6.42967 30.1575 3.08585 28.5451 2.77753 26.4698L0.0230476 7.92952C-0.306213 5.71328 2.93113 3.77981 7.25385 3.611C7.38102 3.60604 7.5084 3.60266 7.63588 3.60088Z" fill="#FF00BD"/>
<path d="M10.305 19.47V13.152C10.305 12.585 10.332 12.36 10.458 12.108C10.629 11.766 10.998 11.55 11.475 11.55C11.952 11.55 12.321 11.766 12.492 12.108C12.618 12.36 12.645 12.585 12.645 13.152V15.168H15.678V13.152C15.678 12.585 15.705 12.36 15.831 12.108C16.002 11.766 16.371 11.55 16.848 11.55C17.325 11.55 17.694 11.766 17.865 12.108C17.991 12.36 18.018 12.585 18.018 13.152V19.47C18.018 20.037 17.991 20.262 17.865 20.514C17.694 20.856 17.325 21.072 16.848 21.072C16.371 21.072 16.002 20.856 15.831 20.514C15.705 20.262 15.678 20.037 15.678 19.47V17.238H12.645V19.47C12.645 20.037 12.618 20.262 12.492 20.514C12.321 20.856 11.952 21.072 11.475 21.072C10.998 21.072 10.629 20.856 10.458 20.514C10.332 20.262 10.305 20.037 10.305 19.47ZM22.5764 16.311C22.5764 17.292 22.6484 18.111 23.1254 18.579C23.3954 18.849 23.7464 18.984 24.2144 18.984C24.6824 18.984 25.0334 18.849 25.3034 18.579C25.7804 18.111 25.8524 17.292 25.8524 16.311C25.8524 15.33 25.7804 14.511 25.3034 14.043C25.0334 13.773 24.6824 13.638 24.2144 13.638C23.7464 13.638 23.3954 13.773 23.1254 14.043C22.6484 14.511 22.5764 15.33 22.5764 16.311ZM28.1924 16.311C28.1924 18.021 27.9674 19.056 27.1214 19.956C26.5364 20.568 25.6094 21.108 24.2144 21.108C22.8194 21.108 21.8924 20.568 21.3074 19.956C20.4614 19.056 20.2364 18.021 20.2364 16.311C20.2364 14.601 20.4614 13.566 21.3074 12.666C21.8924 12.054 22.8194 11.514 24.2144 11.514C25.6094 11.514 26.5364 12.054 27.1214 12.666C27.9674 13.566 28.1924 14.601 28.1924 16.311ZM31.8364 11.622H35.0674C36.8404 11.622 37.9744 12.63 37.9744 14.187C37.9744 15.087 37.5874 15.708 36.7864 16.176C37.6774 16.644 38.1184 17.292 38.1184 18.3C38.1184 19.947 37.0024 21 35.2294 21H31.8364C31.4944 21 31.0624 21 30.7384 20.676C30.4144 20.352 30.4144 19.92 30.4144 19.578V13.044C30.4144 12.702 30.4144 12.27 30.7384 11.946C31.0624 11.622 31.4944 11.622 31.8364 11.622ZM32.7544 17.076V19.272H34.6084C35.3464 19.272 35.7784 18.84 35.7784 18.174C35.7784 17.49 35.3464 17.076 34.6084 17.076H32.7544ZM34.5004 13.35H32.7544V15.366H34.5004C35.2384 15.366 35.6344 14.988 35.6344 14.34C35.6344 13.71 35.2384 13.35 34.5004 13.35ZM43.424 13.494C42.866 13.494 42.434 13.638 41.921 13.944C41.615 14.124 41.354 14.187 41.147 14.187C40.913 14.187 40.652 14.088 40.481 13.872C40.292 13.647 40.22 13.44 40.22 13.17C40.22 12.648 40.661 12.279 41.093 12.054C41.777 11.694 42.515 11.514 43.46 11.514C46.07 11.514 47.411 12.63 47.411 14.826V19.479C47.411 20.082 47.384 20.262 47.24 20.532C47.069 20.856 46.673 21.072 46.232 21.072C45.917 21.072 45.665 20.973 45.485 20.802C45.305 20.64 45.215 20.46 45.143 20.181C44.459 20.847 43.892 21.108 42.821 21.108C41.759 21.108 40.967 20.811 40.427 20.262C39.932 19.767 39.653 18.984 39.653 18.156C39.653 16.662 40.679 15.438 42.893 15.438H45.071V14.97C45.071 13.944 44.531 13.494 43.424 13.494ZM45.071 17.544V17.04H43.289C42.353 17.04 41.903 17.418 41.903 18.12C41.903 18.768 42.353 19.182 43.325 19.182C43.901 19.182 44.315 19.11 44.711 18.732C44.99 18.471 45.071 18.147 45.071 17.544ZM49.4131 19.983C49.4131 19.695 49.5301 19.461 49.8091 19.011L51.0061 17.094C50.1601 16.572 49.6471 15.654 49.6471 14.565C49.6471 12.837 50.9341 11.622 52.7611 11.622H55.8841C56.2261 11.622 56.6581 11.622 56.9821 11.946C57.3061 12.27 57.3061 12.702 57.3061 13.044V19.47C57.3061 20.037 57.2791 20.262 57.1531 20.514C56.9821 20.856 56.6131 21.072 56.1361 21.072C55.6591 21.072 55.2901 20.856 55.1191 20.514C54.9931 20.262 54.9661 20.037 54.9661 19.47V17.643H53.3011L51.7081 20.199C51.3481 20.775 51.0961 21.072 50.5921 21.072C50.3851 21.072 50.1781 21.009 49.9621 20.874C49.6021 20.649 49.4131 20.325 49.4131 19.983ZM51.9421 14.655C51.9421 15.348 52.4191 15.816 53.1571 15.816H54.9661V13.494H53.1751C52.4101 13.494 51.9421 13.962 51.9421 14.655ZM65.5161 11.622H68.7471C70.5201 11.622 71.6541 12.63 71.6541 14.187C71.6541 15.087 71.2671 15.708 70.4661 16.176C71.3571 16.644 71.7981 17.292 71.7981 18.3C71.7981 19.947 70.6821 21 68.9091 21H65.5161C65.1741 21 64.7421 21 64.4181 20.676C64.0941 20.352 64.0941 19.92 64.0941 19.578V13.044C64.0941 12.702 64.0941 12.27 64.4181 11.946C64.7421 11.622 65.1741 11.622 65.5161 11.622ZM66.4341 17.076V19.272H68.2881C69.0261 19.272 69.4581 18.84 69.4581 18.174C69.4581 17.49 69.0261 17.076 68.2881 17.076H66.4341ZM68.1801 13.35H66.4341V15.366H68.1801C68.9181 15.366 69.3141 14.988 69.3141 14.34C69.3141 13.71 68.9181 13.35 68.1801 13.35ZM79.4257 15.438C79.4077 15.033 79.3717 14.763 79.2187 14.421C78.9667 13.863 78.4357 13.458 77.6437 13.458C76.8607 13.458 76.3207 13.863 76.0777 14.421C75.9247 14.763 75.8797 15.033 75.8707 15.438H79.4257ZM80.3797 17.04H75.8707C75.8707 18.255 76.5817 19.128 77.9407 19.128C78.5257 19.128 79.1017 18.966 79.5607 18.624C79.9297 18.363 80.1547 18.273 80.4337 18.273C80.8837 18.273 81.3787 18.714 81.3787 19.254C81.3787 19.695 81.0007 20.1 80.4607 20.46C79.8217 20.892 78.9397 21.108 77.9047 21.108C75.6817 21.108 73.5667 20.1 73.5667 16.311C73.5667 13.251 75.2137 11.514 77.6437 11.514C80.1727 11.514 81.6397 13.332 81.7207 15.699C81.7297 16.059 81.6847 16.464 81.4057 16.743C81.1087 17.04 80.7307 17.04 80.3797 17.04ZM83.8519 22.908V13.143C83.8519 12.54 83.8789 12.36 84.0229 12.09C84.1939 11.766 84.5899 11.55 85.0309 11.55C85.3459 11.55 85.5979 11.649 85.7779 11.82C85.9579 11.982 86.0479 12.18 86.1199 12.486C86.7589 11.775 87.4519 11.514 88.4509 11.514C89.3689 11.514 90.2059 11.82 90.7279 12.36C91.6279 13.278 91.6999 14.736 91.6999 16.32C91.6999 17.886 91.6279 19.344 90.7279 20.262C90.2059 20.802 89.3959 21.108 88.4599 21.108C87.5059 21.108 86.7859 20.856 86.1919 20.172V22.908C86.1919 23.475 86.1649 23.7 86.0389 23.952C85.8679 24.294 85.4989 24.51 85.0219 24.51C84.5449 24.51 84.1759 24.294 84.0049 23.952C83.8789 23.7 83.8519 23.475 83.8519 22.908ZM89.3599 16.32C89.3599 14.817 89.1799 13.638 87.7939 13.638C86.3719 13.638 86.1919 14.817 86.1919 16.32C86.1919 17.823 86.3719 18.984 87.7759 18.984C89.1799 18.984 89.3599 17.823 89.3599 16.32ZM97.6681 11.514C98.4241 11.514 98.9641 11.658 99.5041 11.973C100.035 12.243 100.638 12.693 100.638 13.296C100.638 13.593 100.521 13.836 100.305 14.061C100.143 14.232 99.8641 14.367 99.5851 14.367C99.3151 14.367 99.1081 14.286 98.7751 14.043C98.3971 13.773 98.0911 13.638 97.6501 13.638C97.1101 13.647 96.6601 13.845 96.3271 14.25C95.9671 14.7 95.8051 15.321 95.8051 16.302C95.8051 17.283 95.9671 17.922 96.3271 18.372C96.6691 18.786 97.0921 18.984 97.6501 18.984C98.0911 18.984 98.3971 18.867 98.7751 18.588C99.0901 18.354 99.3151 18.246 99.5851 18.246C99.8641 18.246 100.143 18.39 100.305 18.561C100.521 18.777 100.638 19.029 100.638 19.326C100.638 19.92 100.044 20.361 99.5041 20.658C98.9551 20.955 98.4061 21.108 97.6501 21.108C95.7781 21.108 93.4651 20.1 93.4651 16.302C93.4651 12.504 95.7871 11.514 97.6681 11.514ZM110.483 19.47C110.483 20.037 110.456 20.262 110.33 20.514C110.159 20.856 109.79 21.072 109.313 21.072C108.836 21.072 108.467 20.856 108.296 20.514C108.17 20.262 108.143 20.037 108.143 19.47V15.555L105.2 19.965C104.678 20.739 104.318 21.072 103.76 21.072C103.4 21.072 103.139 20.955 102.95 20.766C102.662 20.478 102.59 20.109 102.59 19.614V13.152C102.59 12.585 102.617 12.36 102.743 12.108C102.914 11.766 103.283 11.55 103.76 11.55C104.237 11.55 104.606 11.766 104.777 12.108C104.903 12.36 104.93 12.585 104.93 13.152V17.067L107.873 12.657C108.395 11.874 108.755 11.55 109.322 11.55C109.673 11.55 109.934 11.667 110.123 11.856C110.411 12.135 110.483 12.504 110.483 13.008V19.47ZM112.571 19.983C112.571 19.695 112.688 19.461 112.967 19.011L114.164 17.094C113.318 16.572 112.805 15.654 112.805 14.565C112.805 12.837 114.092 11.622 115.919 11.622H119.042C119.384 11.622 119.816 11.622 120.14 11.946C120.464 12.27 120.464 12.702 120.464 13.044V19.47C120.464 20.037 120.437 20.262 120.311 20.514C120.14 20.856 119.771 21.072 119.294 21.072C118.817 21.072 118.448 20.856 118.277 20.514C118.151 20.262 118.124 20.037 118.124 19.47V17.643H116.459L114.866 20.199C114.506 20.775 114.254 21.072 113.75 21.072C113.543 21.072 113.336 21.009 113.12 20.874C112.76 20.649 112.571 20.325 112.571 19.983ZM115.1 14.655C115.1 15.348 115.577 15.816 116.315 15.816H118.124V13.494H116.333C115.568 13.494 115.1 13.962 115.1 14.655Z" fill="white"/>
</svg>
