<svg width="16" height="16" viewBox="0 0 16 16" fill="none" xmlns="http://www.w3.org/2000/svg">
<path d="M8.01126 0C6.96216 0 5.92334 0.206926 4.9541 0.608964C3.98486 1.011 3.10419 1.60028 2.36237 2.34315C0.864186 3.84344 0.0225174 5.87827 0.0225174 8C0.0155335 9.84731 0.654261 11.6388 1.82797 13.064L0.230225 14.664C0.119375 14.7765 0.0442836 14.9194 0.0144264 15.0745C-0.0154309 15.2297 0.00128371 15.3903 0.062461 15.536C0.128814 15.6799 0.236379 15.8009 0.371503 15.8835C0.506627 15.9661 0.663215 16.0067 0.821391 16H8.01126C10.13 16 12.162 15.1571 13.6602 13.6569C15.1583 12.1566 16 10.1217 16 8C16 5.87827 15.1583 3.84344 13.6602 2.34315C12.162 0.842855 10.13 0 8.01126 0ZM8.01126 14.4H2.74668L3.48963 13.656C3.56511 13.5819 3.62517 13.4936 3.66631 13.3961C3.70745 13.2986 3.72885 13.1938 3.72929 13.088C3.72629 12.877 3.64015 12.6757 3.48963 12.528C2.44357 11.4816 1.79216 10.1044 1.64638 8.63103C1.5006 7.15764 1.86947 5.6792 2.69014 4.44762C3.51081 3.21603 4.73251 2.30749 6.1471 1.87678C7.56168 1.44607 9.08164 1.51984 10.448 2.08553C11.8144 2.65122 12.9426 3.67382 13.6405 4.97911C14.3384 6.28441 14.5627 7.79163 14.2753 9.24401C13.9879 10.6964 13.2066 12.004 12.0644 12.9442C10.9222 13.8843 9.48979 14.3988 8.01126 14.4Z" fill="#6C8197"/>
</svg>
