<svg width="64" height="64" viewBox="0 0 64 64" fill="none" xmlns="http://www.w3.org/2000/svg">
<path d="M9.37254 9.37258C4.89726 13.8479 1.84956 19.5497 0.614828 25.7571C-0.619898 31.9645 0.0138077 38.3986 2.43581 44.2459C4.85781 50.0931 8.95933 55.0908 14.2217 58.607C19.4841 62.1232 25.6709 64 31.9999 64C38.3289 64 44.5158 62.1232 49.7782 58.607C55.0406 55.0908 59.1421 50.0931 61.5641 44.2459C63.9861 38.3986 64.6198 31.9645 63.3851 25.7571C62.1503 19.5497 59.1026 13.8479 54.6274 9.37258C51.6559 6.40111 48.1282 4.044 44.2458 2.43585C40.3634 0.827702 36.2022 4.20964e-07 31.9999 4.20964e-07C27.7976 8.3789e-08 23.6365 0.827702 19.7541 2.43585C15.8717 4.044 12.344 6.40111 9.37254 9.37258ZM50.1019 50.1019C46.5217 53.6821 41.9602 56.1203 36.9943 57.1081C32.0283 58.0959 26.881 57.5889 22.2033 55.6513C17.5255 53.7137 13.5273 50.4325 10.7143 46.2226C7.90137 42.0127 6.39996 37.0632 6.39996 32C6.39996 26.9368 7.90137 21.9873 10.7143 17.7774C13.5273 13.5675 17.5255 10.2863 22.2033 8.34868C26.881 6.41108 32.0283 5.90412 36.9943 6.8919C41.9602 7.87968 46.5217 10.3178 50.1019 13.8981C54.9028 18.699 57.5999 25.2104 57.5999 32C57.5999 38.7895 54.9028 45.301 50.1019 50.1019ZM38.7882 20.6863L31.9999 27.4745L25.2117 20.6863C24.6116 20.0862 23.7977 19.749 22.949 19.749C22.1003 19.749 21.2864 20.0862 20.6862 20.6863C20.0861 21.2864 19.749 22.1003 19.749 22.949C19.749 23.7977 20.0861 24.6116 20.6862 25.2118L27.4745 32L20.6862 38.7882C20.0861 39.3883 19.749 40.2023 19.749 41.051C19.749 41.8996 20.0861 42.7136 20.6862 43.3137C21.2864 43.9138 22.1003 44.251 22.949 44.251C23.7977 44.251 24.6116 43.9138 25.2117 43.3137L31.9999 36.5255L38.7882 43.3137C39.3883 43.9138 40.2022 44.251 41.0509 44.251C41.8996 44.251 42.7135 43.9138 43.3137 43.3137C43.9138 42.7136 44.2509 41.8996 44.2509 41.051C44.2509 40.2023 43.9138 39.3883 43.3137 38.7882L36.5254 32L43.3137 25.2118C43.9138 24.6116 44.2509 23.7977 44.2509 22.949C44.2509 22.1003 43.9138 21.2864 43.3137 20.6863C42.7135 20.0862 41.8996 19.749 41.0509 19.749C40.2022 19.749 39.3883 20.0862 38.7882 20.6863Z" fill="#EF2828"/>
</svg>
