<svg width="64" height="64" viewBox="0 0 64 64" fill="none" xmlns="http://www.w3.org/2000/svg">
<path d="M32 0C25.671 0 19.4841 1.87677 14.2218 5.39297C8.95939 8.90917 4.85787 13.9069 2.43587 19.7541C0.013865 25.6014 -0.619842 32.0355 0.614885 38.2429C1.84961 44.4503 4.89732 50.1521 9.37259 54.6274C13.8479 59.1027 19.5497 62.1504 25.7571 63.3851C31.9645 64.6198 38.3986 63.9861 44.2459 61.5641C50.0931 59.1421 55.0908 55.0406 58.607 49.7782C62.1232 44.5159 64 38.329 64 32C64 27.7977 63.1723 23.6365 61.5641 19.7541C59.956 15.8717 57.5989 12.3441 54.6274 9.37258C51.6559 6.40111 48.1283 4.044 44.2459 2.43585C40.3635 0.827704 36.2023 0 32 0ZM32 57.6C26.9368 57.6 21.9873 56.0986 17.7774 53.2856C13.5675 50.4726 10.2863 46.4745 8.3487 41.7967C6.41109 37.1189 5.90413 31.9716 6.89191 27.0057C7.87969 22.0398 10.3179 17.4783 13.8981 13.8981C17.4783 10.3178 22.0398 7.87968 27.0057 6.8919C31.9716 5.90411 37.1189 6.41108 41.7967 8.34868C46.4745 10.2863 50.4727 13.5675 53.2856 17.7774C56.0986 21.9873 57.6 26.9368 57.6 32C57.6 38.7895 54.9029 45.301 50.1019 50.1019C45.301 54.9029 38.7895 57.6 32 57.6ZM33 15.8C32.1513 15.8 31.3374 16.1371 30.7373 16.7373C30.1371 17.3374 29.8 18.1513 29.8 19V31.8H23.4C22.5513 31.8 21.7374 32.1371 21.1373 32.7373C20.5371 33.3374 20.2 34.1513 20.2 35C20.2 35.8487 20.5371 36.6626 21.1373 37.2627C21.7374 37.8628 22.5513 38.2 23.4 38.2H33C33.8487 38.2 34.6626 37.8628 35.2627 37.2627C35.8629 36.6626 36.2 35.8487 36.2 35V19C36.2 18.1513 35.8629 17.3374 35.2627 16.7373C34.6626 16.1371 33.8487 15.8 33 15.8Z" fill="#4A5A6B"/>
</svg>
