<svg width="20" height="20" viewBox="0 0 20 20" fill="none" xmlns="http://www.w3.org/2000/svg">
<path fill-rule="evenodd" clip-rule="evenodd" d="M14.503 2.22651V0.722892C14.503 0.327711 14.1753 0 13.7801 0C13.3849 0 13.0572 0.327711 13.0572 0.722892V2.16867H6.79217V0.722892C6.79217 0.327711 6.46446 0 6.06928 0C5.6741 0 5.34639 0.327711 5.34639 0.722892V2.22651C2.74398 2.46747 1.48133 4.01928 1.28855 6.32289C1.26928 6.60241 1.5006 6.83373 1.77048 6.83373H18.0789C18.3584 6.83373 18.5898 6.59277 18.5608 6.32289C18.3681 4.01928 17.1054 2.46747 14.503 2.22651ZM17.6355 8.27952H2.21386C1.68373 8.27952 1.25 8.71325 1.25 9.24337V15.1807C1.25 18.0723 2.69578 20 6.06928 20H13.7801C17.1536 20 18.5994 18.0723 18.5994 15.1807V9.24337C18.5994 8.71325 18.1657 8.27952 17.6355 8.27952ZM7.23554 16.347C7.18735 16.3855 7.13916 16.4337 7.09096 16.4627C7.03313 16.5012 6.9753 16.5301 6.91747 16.5494C6.85964 16.5783 6.80181 16.5976 6.74398 16.6072C6.67651 16.6169 6.61867 16.6265 6.5512 16.6265C6.4259 16.6265 6.3006 16.5976 6.18494 16.5494C6.05964 16.5012 5.96325 16.4337 5.86687 16.347C5.69337 16.1639 5.58735 15.9133 5.58735 15.6627C5.58735 15.412 5.69337 15.1614 5.86687 14.9783C5.96325 14.8916 6.05964 14.8241 6.18494 14.7759C6.35843 14.6988 6.5512 14.6795 6.74398 14.7181C6.80181 14.7277 6.85964 14.747 6.91747 14.7759C6.9753 14.7952 7.03313 14.8241 7.09096 14.8627L7.23554 14.9783C7.40904 15.1614 7.51506 15.412 7.51506 15.6627C7.51506 15.9133 7.40904 16.1639 7.23554 16.347ZM7.23554 12.9735C7.05241 13.147 6.80181 13.253 6.5512 13.253C6.3006 13.253 6.05 13.147 5.86687 12.9735C5.69337 12.7904 5.58735 12.5398 5.58735 12.2892C5.58735 12.0386 5.69337 11.788 5.86687 11.6048C6.13675 11.3349 6.56084 11.2482 6.91747 11.4024C7.04277 11.4506 7.1488 11.5181 7.23554 11.6048C7.40904 11.788 7.51506 12.0386 7.51506 12.2892C7.51506 12.5398 7.40904 12.7904 7.23554 12.9735ZM10.609 16.347C10.4259 16.5205 10.1753 16.6265 9.9247 16.6265C9.6741 16.6265 9.42349 16.5205 9.24036 16.347C9.06687 16.1639 8.96084 15.9133 8.96084 15.6627C8.96084 15.412 9.06687 15.1614 9.24036 14.9783C9.59699 14.6217 10.2524 14.6217 10.609 14.9783C10.7825 15.1614 10.8886 15.412 10.8886 15.6627C10.8886 15.9133 10.7825 16.1639 10.609 16.347ZM10.609 12.9735L10.4645 13.0892C10.4066 13.1277 10.3488 13.1566 10.291 13.1759C10.2331 13.2048 10.1753 13.2241 10.1175 13.2337C10.05 13.2434 9.99217 13.253 9.9247 13.253C9.6741 13.253 9.42349 13.147 9.24036 12.9735C9.06687 12.7904 8.96084 12.5398 8.96084 12.2892C8.96084 12.0386 9.06687 11.788 9.24036 11.6048C9.32711 11.5181 9.43313 11.4506 9.55843 11.4024C9.91506 11.2482 10.3392 11.3349 10.609 11.6048C10.7825 11.788 10.8886 12.0386 10.8886 12.2892C10.8886 12.5398 10.7825 12.7904 10.609 12.9735ZM13.9825 16.347C13.7994 16.5205 13.5488 16.6265 13.2982 16.6265C13.0476 16.6265 12.797 16.5205 12.6139 16.347C12.4404 16.1639 12.3343 15.9133 12.3343 15.6627C12.3343 15.412 12.4404 15.1614 12.6139 14.9783C12.9705 14.6217 13.6259 14.6217 13.9825 14.9783C14.156 15.1614 14.262 15.412 14.262 15.6627C14.262 15.9133 14.156 16.1639 13.9825 16.347ZM13.9825 12.9735L13.838 13.0892C13.7801 13.1277 13.7223 13.1566 13.6645 13.1759C13.6066 13.2048 13.5488 13.2241 13.491 13.2337C13.4235 13.2434 13.356 13.253 13.2982 13.253C13.0476 13.253 12.797 13.147 12.6139 12.9735C12.4404 12.7904 12.3343 12.5398 12.3343 12.2892C12.3343 12.0386 12.4404 11.788 12.6139 11.6048C12.7102 11.5181 12.8066 11.4506 12.9319 11.4024C13.1054 11.3253 13.2982 11.306 13.491 11.3446C13.5488 11.3542 13.6066 11.3735 13.6645 11.4024C13.7223 11.4217 13.7801 11.4506 13.838 11.4892L13.9825 11.6048C14.156 11.788 14.262 12.0386 14.262 12.2892C14.262 12.5398 14.156 12.7904 13.9825 12.9735Z" fill="white"/>
</svg>
