<svg width="18" height="20" viewBox="0 0 18 20" fill="none" xmlns="http://www.w3.org/2000/svg">
<path fill-rule="evenodd" clip-rule="evenodd" d="M13.503 2.22651V0.722892C13.503 0.327711 13.1753 0 12.7801 0C12.3849 0 12.0572 0.327711 12.0572 0.722892V2.16867H5.79217V0.722892C5.79217 0.327711 5.46446 0 5.06928 0C4.6741 0 4.34639 0.327711 4.34639 0.722892V2.22651C1.74398 2.46747 0.481325 4.01928 0.288554 6.32289C0.269277 6.60241 0.500602 6.83374 0.770482 6.83374H17.0789C17.3584 6.83374 17.5898 6.59277 17.5608 6.32289C17.3681 4.01928 16.1054 2.46747 13.503 2.22651ZM16.6355 8.27952H1.21386C0.683735 8.27952 0.25 8.71325 0.25 9.24337V15.1807C0.25 18.0723 1.69578 20 5.06928 20H12.7801C16.1536 20 17.5994 18.0723 17.5994 15.1807V9.24337C17.5994 8.71325 17.1657 8.27952 16.6355 8.27952ZM6.23554 16.347C6.18735 16.3855 6.13916 16.4337 6.09096 16.4627C6.03313 16.5012 5.9753 16.5301 5.91747 16.5494C5.85964 16.5783 5.80181 16.5976 5.74398 16.6072C5.67651 16.6169 5.61867 16.6265 5.5512 16.6265C5.4259 16.6265 5.3006 16.5976 5.18494 16.5494C5.05964 16.5012 4.96325 16.4337 4.86687 16.347C4.69337 16.1639 4.58735 15.9133 4.58735 15.6627C4.58735 15.412 4.69337 15.1614 4.86687 14.9783C4.96325 14.8916 5.05964 14.8241 5.18494 14.7759C5.35843 14.6988 5.5512 14.6795 5.74398 14.7181C5.80181 14.7277 5.85964 14.747 5.91747 14.7759C5.9753 14.7952 6.03313 14.8241 6.09096 14.8627L6.23554 14.9783C6.40904 15.1614 6.51506 15.412 6.51506 15.6627C6.51506 15.9133 6.40904 16.1639 6.23554 16.347ZM6.23554 12.9735C6.05241 13.147 5.80181 13.253 5.5512 13.253C5.3006 13.253 5.05 13.147 4.86687 12.9735C4.69337 12.7904 4.58735 12.5398 4.58735 12.2892C4.58735 12.0386 4.69337 11.788 4.86687 11.6048C5.13675 11.3349 5.56084 11.2482 5.91747 11.4024C6.04277 11.4506 6.1488 11.5181 6.23554 11.6048C6.40904 11.788 6.51506 12.0386 6.51506 12.2892C6.51506 12.5398 6.40904 12.7904 6.23554 12.9735ZM9.60904 16.347C9.4259 16.5205 9.1753 16.6265 8.9247 16.6265C8.6741 16.6265 8.42349 16.5205 8.24036 16.347C8.06687 16.1639 7.96084 15.9133 7.96084 15.6627C7.96084 15.412 8.06687 15.1614 8.24036 14.9783C8.59699 14.6217 9.25241 14.6217 9.60904 14.9783C9.78253 15.1614 9.88855 15.412 9.88855 15.6627C9.88855 15.9133 9.78253 16.1639 9.60904 16.347V16.347ZM9.60904 12.9735L9.46446 13.0892C9.40663 13.1277 9.34879 13.1566 9.29096 13.1759C9.23313 13.2048 9.1753 13.2241 9.11747 13.2337C9.05 13.2434 8.99217 13.253 8.9247 13.253C8.6741 13.253 8.42349 13.147 8.24036 12.9735C8.06687 12.7904 7.96084 12.5398 7.96084 12.2892C7.96084 12.0386 8.06687 11.788 8.24036 11.6048C8.32711 11.5181 8.43313 11.4506 8.55843 11.4024C8.91506 11.2482 9.33916 11.3349 9.60904 11.6048C9.78253 11.788 9.88855 12.0386 9.88855 12.2892C9.88855 12.5398 9.78253 12.7904 9.60904 12.9735V12.9735ZM12.9825 16.347C12.7994 16.5205 12.5488 16.6265 12.2982 16.6265C12.0476 16.6265 11.797 16.5205 11.6139 16.347C11.4404 16.1639 11.3343 15.9133 11.3343 15.6627C11.3343 15.412 11.4404 15.1614 11.6139 14.9783C11.9705 14.6217 12.6259 14.6217 12.9825 14.9783C13.156 15.1614 13.262 15.412 13.262 15.6627C13.262 15.9133 13.156 16.1639 12.9825 16.347ZM12.9825 12.9735L12.838 13.0892C12.7801 13.1277 12.7223 13.1566 12.6645 13.1759C12.6066 13.2048 12.5488 13.2241 12.491 13.2337C12.4235 13.2434 12.356 13.253 12.2982 13.253C12.0476 13.253 11.797 13.147 11.6139 12.9735C11.4404 12.7904 11.3343 12.5398 11.3343 12.2892C11.3343 12.0386 11.4404 11.788 11.6139 11.6048C11.7102 11.5181 11.8066 11.4506 11.9319 11.4024C12.1054 11.3253 12.2982 11.306 12.491 11.3446C12.5488 11.3542 12.6066 11.3735 12.6645 11.4024C12.7223 11.4217 12.7801 11.4506 12.838 11.4892L12.9825 11.6048C13.156 11.788 13.262 12.0386 13.262 12.2892C13.262 12.5398 13.156 12.7904 12.9825 12.9735V12.9735Z" fill="white"/>
</svg>
