<svg width="18" height="18" viewBox="0 0 18 18" fill="none" xmlns="http://www.w3.org/2000/svg">
<path d="M12.339 9.639C12.4209 9.55341 12.4852 9.45248 12.528 9.342C12.618 9.12289 12.618 8.87712 12.528 8.658C12.4852 8.54753 12.4209 8.4466 12.339 8.361L9.639 5.661C9.46953 5.49153 9.23968 5.39632 9 5.39632C8.76033 5.39632 8.53048 5.49153 8.361 5.661C8.19153 5.83048 8.09632 6.06033 8.09632 6.3C8.09632 6.53968 8.19153 6.76953 8.361 6.939L9.531 8.1H6.3C6.06131 8.1 5.83239 8.19483 5.66361 8.36361C5.49483 8.53239 5.4 8.76131 5.4 9C5.4 9.2387 5.49483 9.46762 5.66361 9.6364C5.83239 9.80518 6.06131 9.9 6.3 9.9H9.531L8.361 11.061C8.27665 11.1447 8.20969 11.2442 8.164 11.3539C8.11831 11.4636 8.09479 11.5812 8.09479 11.7C8.09479 11.8188 8.11831 11.9365 8.164 12.0461C8.20969 12.1558 8.27665 12.2553 8.361 12.339C8.44467 12.4234 8.54421 12.4903 8.65389 12.536C8.76356 12.5817 8.88119 12.6052 9 12.6052C9.11882 12.6052 9.23645 12.5817 9.34612 12.536C9.4558 12.4903 9.55534 12.4234 9.639 12.339L12.339 9.639ZM18 9C18 7.21997 17.4722 5.47991 16.4832 3.99987C15.4943 2.51983 14.0887 1.36628 12.4442 0.685088C10.7996 0.00389956 8.99002 -0.17433 7.24419 0.172937C5.49836 0.520204 3.89472 1.37737 2.63604 2.63604C1.37737 3.89472 0.520204 5.49836 0.172937 7.24419C-0.17433 8.99002 0.00389956 10.7996 0.685088 12.4442C1.36628 14.0887 2.51983 15.4943 3.99987 16.4832C5.47991 17.4722 7.21997 18 9 18C11.387 18 13.6761 17.0518 15.364 15.364C17.0518 13.6761 18 11.387 18 9ZM1.8 9C1.8 7.57598 2.22228 6.18393 3.01342 4.9999C3.80457 3.81586 4.92906 2.89302 6.24468 2.34807C7.56031 1.80312 9.00799 1.66054 10.4047 1.93835C11.8013 2.21616 13.0842 2.9019 14.0912 3.90884C15.0981 4.91577 15.7838 6.19869 16.0617 7.59535C16.3395 8.99202 16.1969 10.4397 15.6519 11.7553C15.107 13.071 14.1841 14.1954 13.0001 14.9866C11.8161 15.7777 10.424 16.2 9 16.2C7.09045 16.2 5.2591 15.4414 3.90884 14.0912C2.55857 12.7409 1.8 10.9096 1.8 9Z" fill="#6C8197"/>
</svg>
