<?xml version="1.0" encoding="UTF-8"?>
<svg width="30px" height="30px" viewBox="0 0 30 30" version="1.1" xmlns="http://www.w3.org/2000/svg" xmlns:xlink="http://www.w3.org/1999/xlink">
    <title>Icons / Tabbar / 01 Copy 2</title>
    <g id="BBPlay" stroke="none" stroke-width="1" fill="none" fill-rule="evenodd">
        <g id="login-|-01" transform="translate(-215.000000, -717.000000)" fill="#4A5A6B">
            <g id="Tabbar" transform="translate(0.000000, 716.000000)">
                <g id="Icons-/-Tabbar-/-01-Copy-2" transform="translate(215.000000, 1.000000)">
                    <path d="M17.4,1.49999997 C17.850484,1.49999997 18.2771576,1.70228374 18.5621044,2.05119811 C18.8470511,2.40011249 18.9600968,2.85861757 18.87,3.3 C18.87,3.33 18.855,3.36 18.855,3.39 C18.825,3.54 18.81,3.69 18.78,3.855 C18.7190916,4.52159328 18.7544542,5.19348326 18.885,5.85 C18.93,6.03 18.96,6.18 19.02,6.345 C19.14,6.84 19.335,7.305 19.59,7.74 C19.68,7.92 19.8,8.1 19.905,8.265 C20.4,8.985 21.015,9.6 21.735,10.095 C21.9,10.2 22.08,10.32 22.26,10.41 C22.695,10.665 23.16,10.86 23.655,10.98 C23.82,11.04 23.97,11.07 24.15,11.115 C24.84,11.25 25.515,11.28 26.145,11.22 C26.31,11.19 26.46,11.175 26.61,11.145 C26.64,11.145 26.67,11.13 26.7,11.13 C27.1413824,11.0399032 27.5998875,11.1529489 27.9488019,11.4378956 C28.2977163,11.7228424 28.5,12.149516 28.5,12.6 L28.5,21.72 C28.5,21.93 28.485,22.14 28.47,22.335 C28.455,22.515 28.44,22.68 28.41,22.86 C28.395,23.04 28.365,23.22 28.335,23.385 C27.81,27.015 25.5,29.31 21.885,29.835 C21.72,29.865 21.54,29.895 21.36,29.91 C21.18,29.94 21.015,29.955 20.835,29.97 C20.64,29.985 20.43,30 20.22,30 L8.28,30 C8.07,30 7.86,29.985 7.665,29.97 C7.485,29.955 7.32,29.94 7.14,29.91 C6.96,29.895 6.78,29.865 6.615,29.835 C3,29.31 0.69,27.015 0.165,23.385 C0.135,23.22 0.105,23.04 0.09,22.86 C0.06,22.68 0.045,22.515 0.03,22.335 C0.015,22.14 0,21.93 0,21.72 L0,9.78 C0,9.57 0.015,9.36 0.03,9.165 C0.045,8.985 0.06,8.82 0.09,8.64 C0.105,8.46 0.135,8.28 0.165,8.115 C0.69,4.485 3,2.19 6.615,1.665 C6.78,1.635 6.96,1.605 7.14,1.59 C7.32,1.56 7.485,1.545 7.665,1.53 C7.86,1.515 8.07,1.49999997 8.28,1.49999997 Z M20.625,21.75 L7.125,21.75 C6.51,21.75 6,22.26 6,22.875 C6,23.49 6.51,24 7.125,24 L20.625,24 C21.24,24 21.75,23.49 21.75,22.875 C21.75,22.26 21.24,21.75 20.625,21.75 Z M14.625,15.75 L7.125,15.75 C6.51,15.75 6,16.26 6,16.875 C6,17.49 6.51,18 7.125,18 L14.625,18 C15.24,18 15.75,17.49 15.75,16.875 C15.75,16.26 15.24,15.75 14.625,15.75 Z M25.5,0 C27.9852814,0 30,2.01471863 30,4.5 C30,6.98528137 27.9852814,9 25.5,9 C23.0147186,9 21,6.98528137 21,4.5 C21,2.01471863 23.0147186,0 25.5,0 Z" id="Combined-Shape"></path>
                </g>
            </g>
        </g>
    </g>
</svg>