<svg width="20" height="20" viewBox="0 0 20 20" fill="none" xmlns="http://www.w3.org/2000/svg">
<path d="M9.99999 0C8.02218 0 6.08878 0.586489 4.4443 1.6853C2.79981 2.78412 1.51809 4.34589 0.76121 6.17316C0.00433129 8.00039 -0.193699 10.0111 0.192151 11.9509C0.578001 13.8907 1.53041 15.6725 2.92894 17.0711C4.32746 18.4696 6.10928 19.422 8.04909 19.8079C9.98889 20.1937 11.9996 19.9957 13.8268 19.2388C15.6541 18.4819 17.2159 17.2002 18.3147 15.5557C19.4135 13.9112 20 11.9778 20 9.99999C20 8.68679 19.7413 7.38641 19.2388 6.17316C18.7363 4.9599 17.9997 3.85752 17.0711 2.92893C16.1425 2.00035 15.0401 1.26375 13.8268 0.761199C12.6136 0.25866 11.3132 0 9.99999 0ZM10 18C8.41774 18 6.87103 17.5308 5.55544 16.6518C4.23985 15.7727 3.21447 14.5233 2.60897 13.0615C2.00347 11.5997 1.84504 9.99109 2.15372 8.43929C2.4624 6.88742 3.22433 5.46196 4.34315 4.34314C5.46197 3.22433 6.88742 2.4624 8.43927 2.15372C9.99109 1.84504 11.5997 2.00346 13.0615 2.60896C14.5233 3.21447 15.7727 4.23984 16.6518 5.55543C17.5308 6.87102 18 8.41769 18 10C18 12.1217 17.1572 14.1566 15.6569 15.6569C14.1566 17.1571 12.1217 18 10 18ZM9.99999 4C9.73479 4 9.48039 4.10536 9.29289 4.29289C9.10539 4.48042 8.99999 4.73477 8.99999 5V9.41999L6.89999 10.63C6.70735 10.7392 6.55639 10.9092 6.47077 11.1134C6.38516 11.3176 6.36974 11.5444 6.42694 11.7583C6.48413 11.9722 6.61071 12.1611 6.78681 12.2953C6.96291 12.4296 7.17858 12.5015 7.39999 12.5C7.57517 12.5012 7.74759 12.4564 7.89999 12.37L10.5 10.87L10.59 10.78L10.75 10.65C10.7891 10.6005 10.8226 10.5468 10.85 10.49C10.8826 10.4363 10.9094 10.3793 10.93 10.32C10.9572 10.2564 10.9741 10.1889 10.98 10.12L11 10V5C11 4.73477 10.8946 4.48042 10.7071 4.29289C10.5196 4.10536 10.2652 4 9.99999 4Z" fill="white"/>
</svg>
